<svg width="1355" height="629" viewBox="0 0 1355 629" fill="none" xmlns="http://www.w3.org/2000/svg">
<g clip-path="url(#clip0_126_134)">
<g filter="url(#filter0_f_126_134)">
<rect x="1004" y="94.9961" width="405.241" height="385.465" rx="113" transform="rotate(-38.2705 1004 94.9961)" fill="#5B0F0F"/>
</g>
<g filter="url(#filter1_f_126_134)">
<rect x="117.823" y="106" width="374.459" height="309.103" transform="rotate(29.4176 117.823 106)" fill="#16300E"/>
</g>
<g filter="url(#filter2_f_126_134)">
<path d="M1.12072 15.0489C-36.8793 -16.9511 904.085 -2.9511 904.085 -2.9511L1022.59 192.549L741.121 205.049L488.121 154.049C488.121 154.049 39.1207 47.0489 1.12072 15.0489Z" fill="#0C253D"/>
</g>
<path d="M756.686 100.9V131H753.891V100.9H756.686ZM766.447 115.52V116.81H756.557V115.52H766.447ZM768.296 100.9V102.233H756.557V100.9H768.296ZM766.447 116.724V119.562H766.017V118.917C766.017 118.344 765.816 117.856 765.415 117.455C765.014 117.025 764.526 116.81 763.953 116.81V116.724H766.447ZM766.447 112.768V115.606H763.953V115.52C764.526 115.491 765.014 115.276 765.415 114.875C765.816 114.445 766.017 113.943 766.017 113.37V112.768H766.447ZM768.296 102.104V104.985H767.866V104.34C767.866 103.767 767.651 103.279 767.221 102.878C766.82 102.448 766.332 102.233 765.759 102.233V102.104H768.296ZM768.296 100.126V101.373L763.05 100.9C763.681 100.9 764.34 100.857 765.028 100.771C765.745 100.685 766.404 100.585 767.006 100.47C767.608 100.355 768.038 100.241 768.296 100.126ZM754.02 127.861V131H750.58V130.57C750.58 130.57 750.666 130.57 750.838 130.57C751.039 130.57 751.139 130.57 751.139 130.57C751.884 130.57 752.515 130.312 753.031 129.796C753.576 129.251 753.862 128.606 753.891 127.861H754.02ZM754.02 104.039H753.891C753.891 103.294 753.619 102.663 753.074 102.147C752.529 101.602 751.884 101.33 751.139 101.33C751.139 101.33 751.053 101.33 750.881 101.33C750.709 101.33 750.623 101.33 750.623 101.33L750.58 100.9H754.02V104.039ZM756.557 127.861H756.686C756.715 128.606 756.987 129.251 757.503 129.796C758.048 130.312 758.693 130.57 759.438 130.57C759.438 130.57 759.524 130.57 759.696 130.57C759.868 130.57 759.968 130.57 759.997 130.57V131H756.557V127.861ZM787.275 104.598C789.281 104.598 791.159 104.928 792.908 105.587C794.685 106.218 796.233 107.135 797.552 108.339C798.899 109.543 799.945 110.976 800.691 112.639C801.436 114.273 801.809 116.093 801.809 118.1C801.809 120.107 801.436 121.941 800.691 123.604C799.945 125.238 798.899 126.657 797.552 127.861C796.233 129.065 794.685 129.997 792.908 130.656C791.159 131.287 789.281 131.602 787.275 131.602C785.268 131.602 783.39 131.287 781.642 130.656C779.893 129.997 778.345 129.065 776.998 127.861C775.679 126.657 774.647 125.238 773.902 123.604C773.156 121.941 772.784 120.107 772.784 118.1C772.784 116.093 773.156 114.273 773.902 112.639C774.647 110.976 775.679 109.543 776.998 108.339C778.345 107.135 779.893 106.218 781.642 105.587C783.39 104.928 785.268 104.598 787.275 104.598ZM787.275 130.312C789.396 130.312 791.317 129.796 793.037 128.764C794.757 127.732 796.118 126.299 797.122 124.464C798.125 122.629 798.627 120.508 798.627 118.1C798.627 115.663 798.125 113.542 797.122 111.736C796.118 109.901 794.757 108.468 793.037 107.436C791.317 106.404 789.396 105.888 787.275 105.888C785.182 105.888 783.276 106.404 781.556 107.436C779.836 108.468 778.474 109.901 777.471 111.736C776.467 113.542 775.966 115.663 775.966 118.1C775.966 120.508 776.467 122.629 777.471 124.464C778.474 126.299 779.836 127.732 781.556 128.764C783.276 129.796 785.182 130.312 787.275 130.312ZM810.915 105.2H816.462C817.809 105.2 819.013 105.358 820.074 105.673C821.163 105.988 822.08 106.447 822.826 107.049C823.6 107.651 824.187 108.382 824.589 109.242C824.99 110.102 825.191 111.077 825.191 112.166C825.191 113.37 824.904 114.488 824.331 115.52C823.757 116.552 822.955 117.398 821.923 118.057C820.919 118.716 819.773 119.118 818.483 119.261C818.97 119.462 819.529 119.906 820.16 120.594C820.819 121.282 821.378 121.956 821.837 122.615C821.837 122.615 822.023 122.873 822.396 123.389C822.768 123.876 823.241 124.493 823.815 125.238C824.417 125.955 825.004 126.643 825.578 127.302C826.18 127.961 826.724 128.535 827.212 129.022C827.728 129.509 828.272 129.896 828.846 130.183C829.448 130.441 830.136 130.57 830.91 130.57V131H829.577C828 131 826.696 130.799 825.664 130.398C824.66 129.997 823.843 129.509 823.213 128.936C822.582 128.334 822.037 127.761 821.579 127.216C821.464 127.073 821.192 126.714 820.762 126.141C820.36 125.539 819.916 124.894 819.429 124.206C818.941 123.518 818.497 122.902 818.096 122.357C817.694 121.784 817.451 121.44 817.365 121.325C816.791 120.58 816.132 119.92 815.387 119.347C814.641 118.745 813.853 118.444 813.022 118.444V118.014C813.022 118.014 813.251 118.028 813.71 118.057C814.168 118.057 814.756 118.043 815.473 118.014C816.275 117.985 817.078 117.928 817.881 117.842C818.683 117.727 819.429 117.412 820.117 116.896C820.833 116.38 821.392 115.52 821.794 114.316C821.908 114.001 821.994 113.628 822.052 113.198C822.109 112.768 822.123 112.324 822.095 111.865C822.066 111.062 821.908 110.346 821.622 109.715C821.364 109.084 820.977 108.54 820.461 108.081C819.973 107.622 819.386 107.264 818.698 107.006C818.01 106.748 817.236 106.605 816.376 106.576C815.028 106.519 813.853 106.504 812.85 106.533C811.846 106.562 811.345 106.562 811.345 106.533C811.345 106.504 811.302 106.39 811.216 106.189C811.158 105.96 811.087 105.745 811.001 105.544C810.943 105.315 810.915 105.2 810.915 105.2ZM811.431 105.2V131H808.679V105.2H811.431ZM808.808 128.248L809.324 131H805.669V130.57C805.669 130.57 805.769 130.57 805.97 130.57C806.17 130.57 806.271 130.57 806.271 130.57C806.959 130.57 807.532 130.341 807.991 129.882C808.449 129.423 808.693 128.879 808.722 128.248H808.808ZM808.808 107.909H808.722C808.693 107.25 808.449 106.705 807.991 106.275C807.532 105.845 806.959 105.63 806.271 105.63C806.271 105.63 806.17 105.63 805.97 105.63C805.769 105.63 805.669 105.63 805.669 105.63V105.2H809.324L808.808 107.909ZM811.302 128.248H811.431C811.459 128.879 811.703 129.423 812.162 129.882C812.62 130.341 813.194 130.57 813.882 130.57C813.882 130.57 813.968 130.57 814.14 130.57C814.34 130.57 814.441 130.57 814.441 130.57L814.484 131H810.786L811.302 128.248ZM847.463 100.943L855.891 116.638L854.042 118.143L843.765 100.943H847.463ZM856.493 117.154V131H853.698V117.154H856.493ZM864.147 100.943H866.77L856.192 118.057L854.644 117.584L864.147 100.943ZM862.384 103.996C862.642 103.595 862.713 103.193 862.599 102.792C862.484 102.362 862.269 102.018 861.954 101.76C861.638 101.473 861.28 101.33 860.879 101.33C860.879 101.33 860.793 101.33 860.621 101.33C860.449 101.33 860.363 101.33 860.363 101.33V100.9H869.909V101.33H869.307C868.418 101.33 867.587 101.588 866.813 102.104C866.039 102.62 865.422 103.208 864.964 103.867L862.384 103.996ZM849.097 103.996L845.485 103.867C845.083 103.208 844.496 102.62 843.722 102.104C842.948 101.588 842.102 101.33 841.185 101.33H840.583V100.9H851.161V101.33C851.161 101.33 851.06 101.33 850.86 101.33C850.688 101.33 850.602 101.33 850.602 101.33C849.971 101.33 849.484 101.631 849.14 102.233C848.824 102.806 848.81 103.394 849.097 103.996ZM853.784 127.861V131H850.387V130.57C850.387 130.57 850.473 130.57 850.645 130.57C850.817 130.57 850.917 130.57 850.946 130.57C851.691 130.57 852.322 130.312 852.838 129.796C853.382 129.251 853.669 128.606 853.698 127.861H853.784ZM856.364 127.861H856.493C856.493 128.606 856.765 129.251 857.31 129.796C857.854 130.312 858.499 130.57 859.245 130.57C859.245 130.57 859.331 130.57 859.503 130.57C859.675 130.57 859.761 130.57 859.761 130.57V131H856.364V127.861ZM882.639 104.598C884.646 104.598 886.523 104.928 888.272 105.587C890.049 106.218 891.597 107.135 892.916 108.339C894.263 109.543 895.31 110.976 896.055 112.639C896.8 114.273 897.173 116.093 897.173 118.1C897.173 120.107 896.8 121.941 896.055 123.604C895.31 125.238 894.263 126.657 892.916 127.861C891.597 129.065 890.049 129.997 888.272 130.656C886.523 131.287 884.646 131.602 882.639 131.602C880.632 131.602 878.755 131.287 877.006 130.656C875.257 129.997 873.709 129.065 872.362 127.861C871.043 126.657 870.011 125.238 869.266 123.604C868.521 121.941 868.148 120.107 868.148 118.1C868.148 116.093 868.521 114.273 869.266 112.639C870.011 110.976 871.043 109.543 872.362 108.339C873.709 107.135 875.257 106.218 877.006 105.587C878.755 104.928 880.632 104.598 882.639 104.598ZM882.639 130.312C884.76 130.312 886.681 129.796 888.401 128.764C890.121 127.732 891.483 126.299 892.486 124.464C893.489 122.629 893.991 120.508 893.991 118.1C893.991 115.663 893.489 113.542 892.486 111.736C891.483 109.901 890.121 108.468 888.401 107.436C886.681 106.404 884.76 105.888 882.639 105.888C880.546 105.888 878.64 106.404 876.92 107.436C875.2 108.468 873.838 109.901 872.835 111.736C871.832 113.542 871.33 115.663 871.33 118.1C871.33 120.508 871.832 122.629 872.835 124.464C873.838 126.299 875.2 127.732 876.92 128.764C878.64 129.796 880.546 130.312 882.639 130.312ZM906.059 105.2V121.454C906.059 124.235 906.761 126.428 908.166 128.033C909.599 129.638 911.549 130.441 914.014 130.441C916.737 130.441 918.873 129.681 920.421 128.162C921.998 126.643 922.786 124.564 922.786 121.927V105.2H924.764V121.927C924.764 124.908 923.804 127.273 921.883 129.022C919.991 130.742 917.382 131.602 914.057 131.602C910.76 131.602 908.137 130.742 906.188 129.022C904.267 127.302 903.307 124.951 903.307 121.97V105.2H906.059ZM903.393 105.2V107.479H903.307C903.278 106.963 903.063 106.533 902.662 106.189C902.289 105.816 901.816 105.63 901.243 105.63C901.243 105.63 901.128 105.63 900.899 105.63C900.698 105.63 900.598 105.63 900.598 105.63V105.2H903.393ZM908.768 105.2V105.63C908.768 105.63 908.653 105.63 908.424 105.63C908.223 105.63 908.123 105.63 908.123 105.63C907.578 105.63 907.091 105.816 906.661 106.189C906.26 106.533 906.059 106.963 906.059 107.479H905.973V105.2H908.768ZM922.872 105.2V107.479H922.786C922.786 106.963 922.585 106.533 922.184 106.189C921.783 105.816 921.295 105.63 920.722 105.63C920.722 105.63 920.607 105.63 920.378 105.63C920.177 105.63 920.077 105.63 920.077 105.63V105.2H922.872ZM927.473 105.2V105.63C927.473 105.63 927.358 105.63 927.129 105.63C926.928 105.63 926.828 105.63 926.828 105.63C926.283 105.63 925.81 105.816 925.409 106.189C925.008 106.533 924.793 106.963 924.764 107.479H924.678V105.2H927.473ZM931.555 131.172C931.01 131.172 930.551 130.986 930.179 130.613C929.806 130.24 929.62 129.782 929.62 129.237C929.62 128.692 929.806 128.234 930.179 127.861C930.551 127.488 931.01 127.302 931.555 127.302C932.099 127.302 932.558 127.488 932.931 127.861C933.303 128.234 933.49 128.692 933.49 129.237C933.49 129.782 933.303 130.24 932.931 130.613C932.558 130.986 932.099 131.172 931.555 131.172ZM939.239 131.172C938.694 131.172 938.236 130.986 937.863 130.613C937.49 130.24 937.304 129.782 937.304 129.237C937.304 128.692 937.49 128.234 937.863 127.861C938.236 127.488 938.694 127.302 939.239 127.302C939.784 127.302 940.242 127.488 940.615 127.861C940.988 128.234 941.174 128.692 941.174 129.237C941.174 129.782 940.988 130.24 940.615 130.613C940.242 130.986 939.784 131.172 939.239 131.172Z" fill="#D3FFD5"/>
<g filter="url(#filter3_d_126_134)">
<path d="M86.7081 109V110.6H87.8701L88.2296 109.495L86.7081 109ZM73.8558 109L72.3434 108.478L71.6108 110.6H73.8558V109ZM93.4389 52.2727V50.6727H92.2986L91.9265 51.7506L93.4389 52.2727ZM108.895 52.2727L110.408 51.7513L110.036 50.6727H108.895V52.2727ZM128.45 109V110.6H130.694L129.963 108.479L128.45 109ZM115.598 109L114.076 109.494L114.435 110.6H115.598V109ZM101.388 65.2358L102.91 64.7417L102.551 63.6358H101.388V65.2358ZM100.945 65.2358V63.6358H99.7833L99.4238 64.7408L100.945 65.2358ZM85.9048 86.7024V85.1024H84.3048V86.7024H85.9048ZM116.263 86.7024H117.863V85.1024H116.263V86.7024ZM116.263 96.0646V97.6646H117.863V96.0646H116.263ZM85.9048 96.0646H84.3048V97.6646H85.9048V96.0646ZM86.7081 107.4H73.8558V110.6H86.7081V107.4ZM75.3682 109.522L94.9513 52.7948L91.9265 51.7506L72.3434 108.478L75.3682 109.522ZM93.4389 53.8727H108.895V50.6727H93.4389V53.8727ZM107.382 52.7942L126.938 109.521L129.963 108.479L110.408 51.7513L107.382 52.7942ZM128.45 107.4H115.598V110.6H128.45V107.4ZM117.12 108.506L102.91 64.7417L99.8667 65.7299L114.076 109.494L117.12 108.506ZM101.388 63.6358H100.945V66.8358H101.388V63.6358ZM99.4238 64.7408L85.1866 108.505L88.2296 109.495L102.467 65.7308L99.4238 64.7408ZM85.9048 88.3024H116.263V85.1024H85.9048V88.3024ZM114.663 86.7024V96.0646H117.863V86.7024H114.663ZM116.263 94.4646H85.9048V97.6646H116.263V94.4646ZM87.5048 96.0646V86.7024H84.3048V96.0646H87.5048ZM169.389 66.4545L170.9 66.9826L171.644 64.8545H169.389V66.4545ZM154.515 109V110.6H155.651L156.025 109.528L154.515 109ZM141.219 109L139.709 109.528L140.084 110.6H141.219V109ZM126.345 66.4545V64.8545H124.091L124.835 66.9826L126.345 66.4545ZM138.81 66.4545L140.346 66.0085L140.011 64.8545H138.81V66.4545ZM147.646 96.8956L146.109 97.3416L146.444 98.4956H147.646V96.8956ZM148.089 96.8956V98.4956H149.291L149.626 97.3403L148.089 96.8956ZM156.897 66.4545V64.8545H155.694L155.36 66.0098L156.897 66.4545ZM167.879 65.9265L153.005 108.472L156.025 109.528L170.9 66.9826L167.879 65.9265ZM154.515 107.4H141.219V110.6H154.515V107.4ZM142.73 108.472L127.856 65.9265L124.835 66.9826L139.709 109.528L142.73 108.472ZM126.345 68.0545H138.81V64.8545H126.345V68.0545ZM137.273 66.9006L146.109 97.3416L149.182 96.4496L140.346 66.0085L137.273 66.9006ZM147.646 98.4956H148.089V95.2956H147.646V98.4956ZM149.626 97.3403L158.434 66.8993L155.36 66.0098L146.552 96.4509L149.626 97.3403ZM156.897 68.0545H169.389V64.8545H156.897V68.0545ZM179.16 108.391L178.501 109.849L178.511 109.853L179.16 108.391ZM174.119 104.153L172.775 105.022L172.78 105.03L172.785 105.037L174.119 104.153ZM173.593 91.1619L172.185 90.4014L173.593 91.1619ZM177.138 87.2841L176.262 85.9452L177.138 87.2841ZM182.235 85.0682L181.832 83.5195L181.829 83.5205L182.235 85.0682ZM188.273 84.0156L188.427 85.6083L188.439 85.607L188.273 84.0156ZM194.256 83.2955L194.488 84.8786L194.497 84.8772L194.506 84.8757L194.256 83.2955ZM197.552 82.2429L196.656 80.9172L197.552 82.2429ZM196.915 75.9553L195.857 77.1556L195.867 77.1644L196.915 75.9553ZM187.193 75.9276L188.14 77.2166L188.147 77.2121L188.153 77.2076L187.193 75.9276ZM184.7 79.4176L184.57 81.0124L185.873 81.1182L186.237 79.8625L184.7 79.4176ZM173.786 78.5312L172.222 78.196L171.84 79.9784L173.657 80.126L173.786 78.5312ZM177.055 71.8281L178.266 72.8733L178.271 72.8674L177.055 71.8281ZM183.343 67.4517L183.931 68.9395L183.937 68.9373L183.343 67.4517ZM199.103 66.7315L198.706 68.2814L198.709 68.2822L199.103 66.7315ZM204.892 69.3075L203.981 70.6231L203.988 70.6277L204.892 69.3075ZM208.909 73.7947L207.498 74.5499L207.501 74.5559L208.909 73.7947ZM210.377 109V110.6H211.977V109H210.377ZM199.186 109H197.586V110.6H199.186V109ZM199.186 103.1H200.786V101.5H199.186V103.1ZM198.854 103.1V101.5H197.877L197.431 102.369L198.854 103.1ZM196.112 106.618L197.163 107.824L197.168 107.82L197.173 107.815L196.112 106.618ZM191.985 108.972L192.506 110.485L192.514 110.482L192.522 110.479L191.985 108.972ZM194.394 100.635L195.126 102.058L195.133 102.054L195.141 102.05L194.394 100.635ZM197.524 97.8097L196.177 96.9466L197.524 97.8097ZM198.66 89.2784H200.26V86.3301L197.788 87.9369L198.66 89.2784ZM197.137 89.9432L197.588 91.4782L197.602 91.474L197.616 91.4696L197.137 89.9432ZM195.004 90.4695L195.296 92.0425L195.314 92.0392L195.332 92.0355L195.004 90.4695ZM192.622 90.8849L192.843 92.4696L192.861 92.4671L192.879 92.4642L192.622 90.8849ZM190.461 91.1896L190.235 89.6057L190.229 89.6066L190.461 91.1896ZM186.833 92.1591L187.463 93.6297L186.833 92.1591ZM184.423 93.9595L185.687 94.9396L185.693 94.9321L185.699 94.9245L184.423 93.9595ZM185.309 100.413L184.366 101.706L184.377 101.714L184.389 101.722L185.309 100.413ZM186.417 108.203C183.889 108.203 181.696 107.765 179.809 106.928L178.511 109.853C180.871 110.9 183.516 111.403 186.417 111.403V108.203ZM179.819 106.933C177.958 106.091 176.516 104.872 175.452 103.268L172.785 105.037C174.196 107.164 176.115 108.77 178.501 109.849L179.819 106.933ZM175.462 103.283C174.448 101.717 173.891 99.6929 173.891 97.1172H170.691C170.691 100.155 171.352 102.821 172.775 105.022L175.462 103.283ZM173.891 97.1172C173.891 94.9431 174.29 93.2366 175 91.9224L172.185 90.4014C171.159 92.3004 170.691 94.564 170.691 97.1172H173.891ZM175 91.9224C175.745 90.5446 176.746 89.4528 178.014 88.623L176.262 85.9452C174.539 87.0728 173.176 88.5662 172.185 90.4014L175 91.9224ZM178.014 88.623C179.352 87.7478 180.889 87.075 182.64 86.6159L181.829 83.5205C179.776 84.0585 177.916 84.863 176.262 85.9452L178.014 88.623ZM182.637 86.6168C184.47 86.1408 186.4 85.8038 188.427 85.6082L188.119 82.423C185.936 82.6337 183.84 82.9984 181.832 83.5195L182.637 86.6168ZM188.439 85.607C190.924 85.3474 192.942 85.1047 194.488 84.8786L194.024 81.7123C192.541 81.9294 190.571 82.1668 188.107 82.4243L188.439 85.607ZM194.506 84.8757C196.086 84.6252 197.468 84.2305 198.448 83.5686L196.656 80.9172C196.269 81.1786 195.454 81.4856 194.005 81.7152L194.506 84.8757ZM198.448 83.5686C199.62 82.7769 200.177 81.5686 200.177 80.1932H196.977C196.977 80.6275 196.851 80.7856 196.656 80.9172L198.448 83.5686ZM200.177 80.1932V80.027H196.977V80.1932H200.177ZM200.177 80.027C200.177 77.9087 199.491 76.0702 197.963 74.7462L195.867 77.1644C196.555 77.7608 196.977 78.6367 196.977 80.027H200.177ZM197.973 74.7549C196.495 73.4526 194.514 72.9149 192.262 72.9149V76.1149C194.035 76.1149 195.156 76.5375 195.857 77.1556L197.973 74.7549ZM192.262 72.9149C189.912 72.9149 187.848 73.4358 186.233 74.6476L188.153 77.2076C189.048 76.5358 190.363 76.1149 192.262 76.1149V72.9149ZM186.245 74.6385C184.725 75.7557 183.674 77.2073 183.163 78.9727L186.237 79.8625C186.538 78.8211 187.149 77.946 188.14 77.2166L186.245 74.6385ZM184.829 77.8229L173.916 76.9365L173.657 80.126L184.57 81.0124L184.829 77.8229ZM175.351 78.8665C175.852 76.5268 176.828 74.5408 178.266 72.8733L175.843 70.783C174.032 72.8825 172.828 75.3653 172.222 78.196L175.351 78.8665ZM178.271 72.8674C179.71 71.1838 181.582 69.8692 183.931 68.9395L182.754 65.9639C179.97 67.0655 177.65 68.6684 175.838 70.7888L178.271 72.8674ZM183.937 68.9373C186.296 67.9934 189.079 67.5006 192.317 67.5006V64.3006C188.759 64.3006 185.559 64.8418 182.748 65.9661L183.937 68.9373ZM192.317 67.5006C194.555 67.5006 196.683 67.7626 198.706 68.2814L199.501 65.1817C197.203 64.5925 194.807 64.3006 192.317 64.3006V67.5006ZM198.709 68.2822C200.722 68.7939 202.473 69.5786 203.981 70.623L205.803 67.992C203.951 66.7098 201.843 65.7771 199.497 65.1809L198.709 68.2822ZM203.988 70.6277C205.474 71.645 206.639 72.9463 207.498 74.5499L210.319 73.0396C209.22 70.9869 207.708 69.2968 205.796 67.9874L203.988 70.6277ZM207.501 74.5559C208.328 76.0839 208.777 77.9796 208.777 80.304H211.977C211.977 77.5687 211.447 75.1249 210.316 73.0336L207.501 74.5559ZM208.777 80.304V109H211.977V80.304H208.777ZM210.377 107.4H199.186V110.6H210.377V107.4ZM200.786 109V103.1H197.586V109H200.786ZM199.186 101.5H198.854V104.7H199.186V101.5ZM197.431 102.369C196.84 103.518 196.05 104.534 195.05 105.421L197.173 107.815C198.463 106.671 199.501 105.341 200.277 103.831L197.431 102.369ZM195.061 105.411C194.084 106.262 192.889 106.952 191.448 107.465L192.522 110.479C194.294 109.848 195.849 108.968 197.163 107.824L195.061 105.411ZM191.463 107.46C190.059 107.944 188.385 108.203 186.417 108.203V111.403C188.659 111.403 190.697 111.109 192.506 110.485L191.463 107.46ZM189.796 103.26C191.745 103.26 193.536 102.875 195.126 102.058L193.663 99.2119C192.594 99.7614 191.319 100.06 189.796 100.06V103.26ZM195.141 102.05C196.697 101.229 197.955 100.104 198.872 98.6727L196.177 96.9466C195.58 97.8791 194.751 98.6378 193.648 99.2199L195.141 102.05ZM198.872 98.6727C199.805 97.2162 200.26 95.574 200.26 93.7933H197.06C197.06 95.0042 196.758 96.0395 196.177 96.9466L198.872 98.6727ZM200.26 93.7933V89.2784H197.06V93.7933H200.26ZM197.788 87.9369C197.587 88.0674 197.23 88.2365 196.657 88.4168L197.616 91.4696C198.335 91.2436 198.994 90.9695 199.532 90.6199L197.788 87.9369ZM196.685 88.4082C196.106 88.5784 195.438 88.7439 194.676 88.9034L195.332 92.0355C196.158 91.8626 196.911 91.6773 197.588 91.4782L196.685 88.4082ZM194.711 88.8965C193.929 89.042 193.147 89.1784 192.365 89.3057L192.879 92.4642C193.685 92.333 194.491 92.1924 195.296 92.0425L194.711 88.8965ZM192.401 89.3003C191.605 89.4113 190.883 89.5131 190.235 89.6057L190.687 92.7735C191.332 92.6815 192.05 92.5802 192.843 92.4696L192.401 89.3003ZM190.229 89.6066C188.739 89.8251 187.39 90.1794 186.202 90.6885L187.463 93.6297C188.343 93.2524 189.414 92.9604 190.693 92.7727L190.229 89.6066ZM186.202 90.6885C184.96 91.2208 183.915 91.9777 183.147 92.9945L185.699 94.9245C186.075 94.4271 186.637 93.9837 187.463 93.6297L186.202 90.6885ZM183.158 92.9794C182.33 94.0481 181.964 95.3349 181.964 96.7294H185.164C185.164 95.908 185.371 95.3482 185.687 94.9396L183.158 92.9794ZM181.964 96.7294C181.964 98.7787 182.738 100.517 184.366 101.706L186.253 99.1211C185.554 98.6109 185.164 97.8931 185.164 96.7294H181.964ZM184.389 101.722C185.901 102.786 187.741 103.26 189.796 103.26V100.06C188.232 100.06 187.08 99.7029 186.229 99.1045L184.389 101.722ZM219.531 109H217.931V110.6H219.531V109ZM219.531 66.4545V64.8545H217.931V66.4545H219.531ZM231.331 66.4545H232.931V64.8545H231.331V66.4545ZM231.331 109V110.6H232.931V109H231.331ZM220.944 59.2251L219.839 60.3821L219.847 60.3905L219.856 60.3988L220.944 59.2251ZM220.944 50.8047L222.04 51.9703L222.04 51.9698L220.944 50.8047ZM229.946 50.8047L228.841 51.9617L228.85 51.9701L228.858 51.9784L229.946 50.8047ZM229.946 59.2251L231.042 60.3908L231.042 60.3903L229.946 59.2251ZM221.131 109V66.4545H217.931V109H221.131ZM219.531 68.0545H231.331V64.8545H219.531V68.0545ZM229.731 66.4545V109H232.931V66.4545H229.731ZM231.331 107.4H219.531V110.6H231.331V107.4ZM225.459 59.3702C224.097 59.3702 222.983 58.9333 222.031 58.0514L219.856 60.3988C221.416 61.8437 223.312 62.5702 225.459 62.5702V59.3702ZM222.049 58.0682C221.113 57.1743 220.688 56.1739 220.688 54.9872H217.488C217.488 57.0875 218.3 58.9123 219.839 60.3821L222.049 58.0682ZM220.688 54.9872C220.688 53.8255 221.108 52.8466 222.04 51.9703L219.848 49.6391C218.305 51.0895 217.488 52.8989 217.488 54.9872H220.688ZM222.04 51.9698C222.994 51.0727 224.104 50.632 225.459 50.632V47.432C223.305 47.432 221.405 48.1731 219.847 49.6396L222.04 51.9698ZM225.459 50.632C226.813 50.632 227.909 51.0721 228.841 51.9617L231.051 49.6477C229.508 48.1736 227.613 47.432 225.459 47.432V50.632ZM228.858 51.9784C229.807 52.8571 230.229 53.8338 230.229 54.9872H233.429C233.429 52.8906 232.596 51.0789 231.033 49.631L228.858 51.9784ZM230.229 54.9872C230.229 56.1657 229.801 57.1638 228.849 58.06L231.042 60.3903C232.602 58.9228 233.429 57.0957 233.429 54.9872H230.229ZM228.85 58.0595C227.92 58.9338 226.82 59.3702 225.459 59.3702V62.5702C227.605 62.5702 229.497 61.8432 231.042 60.3908L228.85 58.0595ZM252.583 52.2727H254.183V50.6727H252.583V52.2727ZM252.583 109V110.6H254.183V109H252.583ZM240.783 109H239.183V110.6H240.783V109ZM240.783 52.2727V50.6727H239.183V52.2727H240.783ZM250.983 52.2727V109H254.183V52.2727H250.983ZM252.583 107.4H240.783V110.6H252.583V107.4ZM242.383 109V52.2727H239.183V109H242.383ZM240.783 53.8727H252.583V50.6727H240.783V53.8727ZM266.91 108.391L266.251 109.849L266.261 109.853L266.91 108.391ZM261.869 104.153L260.525 105.022L260.53 105.03L260.535 105.037L261.869 104.153ZM261.343 91.1619L259.935 90.4014L261.343 91.1619ZM264.888 87.2841L264.012 85.9452L264.888 87.2841ZM269.985 85.0682L269.582 83.5195L269.579 83.5205L269.985 85.0682ZM276.023 84.0156L276.177 85.6083L276.189 85.607L276.023 84.0156ZM282.006 83.2955L282.238 84.8786L282.247 84.8772L282.256 84.8757L282.006 83.2955ZM285.302 82.2429L284.406 80.9172L285.302 82.2429ZM284.665 75.9553L283.607 77.1556L283.617 77.1644L284.665 75.9553ZM274.943 75.9276L275.89 77.2166L275.897 77.2121L275.903 77.2076L274.943 75.9276ZM272.45 79.4176L272.32 81.0124L273.623 81.1182L273.987 79.8625L272.45 79.4176ZM261.536 78.5312L259.972 78.196L259.59 79.9784L261.407 80.126L261.536 78.5312ZM264.805 71.8281L266.016 72.8733L266.021 72.8674L264.805 71.8281ZM271.093 67.4517L271.681 68.9395L271.687 68.9373L271.093 67.4517ZM286.853 66.7315L286.456 68.2814L286.459 68.2822L286.853 66.7315ZM292.642 69.3075L291.731 70.6231L291.738 70.6277L292.642 69.3075ZM296.659 73.7947L295.248 74.5499L295.251 74.5559L296.659 73.7947ZM298.127 109V110.6H299.727V109H298.127ZM286.936 109H285.336V110.6H286.936V109ZM286.936 103.1H288.536V101.5H286.936V103.1ZM286.604 103.1V101.5H285.627L285.181 102.369L286.604 103.1ZM283.862 106.618L284.913 107.824L284.918 107.82L284.923 107.815L283.862 106.618ZM279.735 108.972L280.256 110.485L280.264 110.482L280.272 110.479L279.735 108.972ZM282.144 100.635L282.876 102.058L282.883 102.054L282.891 102.05L282.144 100.635ZM285.274 97.8097L283.927 96.9466L285.274 97.8097ZM286.41 89.2784H288.01V86.3301L285.538 87.9369L286.41 89.2784ZM284.887 89.9432L285.338 91.4782L285.352 91.474L285.366 91.4696L284.887 89.9432ZM282.754 90.4695L283.046 92.0425L283.064 92.0392L283.082 92.0355L282.754 90.4695ZM280.372 90.8849L280.593 92.4696L280.611 92.4671L280.629 92.4642L280.372 90.8849ZM278.211 91.1896L277.985 89.6057L277.979 89.6066L278.211 91.1896ZM274.583 92.1591L275.213 93.6297L274.583 92.1591ZM272.173 93.9595L273.437 94.9396L273.443 94.9321L273.449 94.9245L272.173 93.9595ZM273.059 100.413L272.116 101.706L272.127 101.714L272.139 101.722L273.059 100.413ZM274.167 108.203C271.639 108.203 269.446 107.765 267.559 106.928L266.261 109.853C268.621 110.9 271.266 111.403 274.167 111.403V108.203ZM267.569 106.933C265.708 106.091 264.266 104.872 263.202 103.268L260.535 105.037C261.946 107.164 263.865 108.77 266.251 109.849L267.569 106.933ZM263.212 103.283C262.198 101.717 261.641 99.6929 261.641 97.1172H258.441C258.441 100.155 259.102 102.821 260.525 105.022L263.212 103.283ZM261.641 97.1172C261.641 94.9431 262.04 93.2366 262.75 91.9224L259.935 90.4014C258.909 92.3004 258.441 94.564 258.441 97.1172H261.641ZM262.75 91.9224C263.495 90.5446 264.496 89.4528 265.764 88.623L264.012 85.9452C262.289 87.0728 260.926 88.5662 259.935 90.4014L262.75 91.9224ZM265.764 88.623C267.102 87.7478 268.639 87.075 270.39 86.6159L269.579 83.5205C267.526 84.0585 265.666 84.863 264.012 85.9452L265.764 88.623ZM270.387 86.6168C272.22 86.1408 274.15 85.8038 276.177 85.6082L275.869 82.423C273.686 82.6337 271.59 82.9984 269.583 83.5195L270.387 86.6168ZM276.189 85.607C278.674 85.3474 280.692 85.1047 282.238 84.8786L281.774 81.7123C280.291 81.9294 278.321 82.1668 275.857 82.4243L276.189 85.607ZM282.256 84.8757C283.836 84.6252 285.218 84.2305 286.198 83.5686L284.406 80.9172C284.019 81.1786 283.204 81.4856 281.755 81.7152L282.256 84.8757ZM286.198 83.5686C287.37 82.7769 287.927 81.5686 287.927 80.1932H284.727C284.727 80.6275 284.601 80.7856 284.406 80.9172L286.198 83.5686ZM287.927 80.1932V80.027H284.727V80.1932H287.927ZM287.927 80.027C287.927 77.9087 287.241 76.0702 285.713 74.7462L283.617 77.1644C284.305 77.7608 284.727 78.6367 284.727 80.027H287.927ZM285.723 74.7549C284.245 73.4526 282.264 72.9149 280.012 72.9149V76.1149C281.785 76.1149 282.906 76.5375 283.607 77.1556L285.723 74.7549ZM280.012 72.9149C277.662 72.9149 275.598 73.4358 273.983 74.6476L275.903 77.2076C276.798 76.5358 278.113 76.1149 280.012 76.1149V72.9149ZM273.995 74.6385C272.475 75.7557 271.424 77.2073 270.913 78.9727L273.987 79.8625C274.288 78.8211 274.899 77.946 275.89 77.2166L273.995 74.6385ZM272.579 77.8229L261.666 76.9365L261.407 80.126L272.32 81.0124L272.579 77.8229ZM263.101 78.8665C263.602 76.5268 264.578 74.5408 266.016 72.8733L263.593 70.783C261.782 72.8825 260.578 75.3653 259.972 78.196L263.101 78.8665ZM266.021 72.8674C267.46 71.1838 269.332 69.8692 271.681 68.9395L270.504 65.9639C267.72 67.0655 265.4 68.6684 263.588 70.7888L266.021 72.8674ZM271.687 68.9373C274.046 67.9934 276.829 67.5006 280.067 67.5006V64.3006C276.509 64.3006 273.309 64.8418 270.498 65.9661L271.687 68.9373ZM280.067 67.5006C282.305 67.5006 284.433 67.7626 286.456 68.2814L287.251 65.1817C284.953 64.5925 282.557 64.3006 280.067 64.3006V67.5006ZM286.459 68.2822C288.472 68.7939 290.223 69.5786 291.731 70.623L293.553 67.992C291.701 66.7098 289.593 65.7771 287.247 65.1809L286.459 68.2822ZM291.738 70.6277C293.224 71.645 294.389 72.9463 295.248 74.5499L298.069 73.0396C296.97 70.9869 295.458 69.2968 293.546 67.9874L291.738 70.6277ZM295.251 74.5559C296.078 76.0839 296.527 77.9796 296.527 80.304H299.727C299.727 77.5687 299.197 75.1249 298.066 73.0336L295.251 74.5559ZM296.527 80.304V109H299.727V80.304H296.527ZM298.127 107.4H286.936V110.6H298.127V107.4ZM288.536 109V103.1H285.336V109H288.536ZM286.936 101.5H286.604V104.7H286.936V101.5ZM285.181 102.369C284.59 103.518 283.8 104.534 282.8 105.421L284.923 107.815C286.213 106.671 287.251 105.341 288.027 103.831L285.181 102.369ZM282.811 105.411C281.834 106.262 280.639 106.952 279.198 107.465L280.272 110.479C282.044 109.848 283.599 108.968 284.913 107.824L282.811 105.411ZM279.213 107.46C277.809 107.944 276.135 108.203 274.167 108.203V111.403C276.409 111.403 278.447 111.109 280.256 110.485L279.213 107.46ZM277.546 103.26C279.495 103.26 281.286 102.875 282.876 102.058L281.413 99.2119C280.344 99.7614 279.069 100.06 277.546 100.06V103.26ZM282.891 102.05C284.447 101.229 285.705 100.104 286.622 98.6727L283.927 96.9466C283.33 97.8791 282.501 98.6378 281.398 99.2199L282.891 102.05ZM286.622 98.6727C287.555 97.2162 288.01 95.574 288.01 93.7933H284.81C284.81 95.0042 284.508 96.0395 283.927 96.9466L286.622 98.6727ZM288.01 93.7933V89.2784H284.81V93.7933H288.01ZM285.538 87.9369C285.337 88.0674 284.98 88.2365 284.407 88.4168L285.366 91.4696C286.085 91.2436 286.744 90.9695 287.282 90.6199L285.538 87.9369ZM284.435 88.4082C283.856 88.5784 283.188 88.7439 282.426 88.9034L283.082 92.0355C283.908 91.8626 284.661 91.6773 285.338 91.4782L284.435 88.4082ZM282.461 88.8965C281.679 89.042 280.897 89.1784 280.115 89.3057L280.629 92.4642C281.435 92.333 282.241 92.1924 283.046 92.0425L282.461 88.8965ZM280.151 89.3003C279.355 89.4113 278.633 89.5131 277.985 89.6057L278.437 92.7735C279.082 92.6815 279.8 92.5802 280.593 92.4696L280.151 89.3003ZM277.979 89.6066C276.489 89.8251 275.14 90.1794 273.952 90.6885L275.213 93.6297C276.093 93.2524 277.164 92.9604 278.443 92.7727L277.979 89.6066ZM273.952 90.6885C272.71 91.2208 271.665 91.9777 270.897 92.9945L273.449 94.9245C273.825 94.4271 274.387 93.9837 275.213 93.6297L273.952 90.6885ZM270.908 92.9794C270.08 94.0481 269.714 95.3349 269.714 96.7294H272.914C272.914 95.908 273.121 95.3482 273.437 94.9396L270.908 92.9794ZM269.714 96.7294C269.714 98.7787 270.488 100.517 272.116 101.706L274.003 99.1211C273.304 98.6109 272.914 97.8931 272.914 96.7294H269.714ZM272.139 101.722C273.651 102.786 275.491 103.26 277.546 103.26V100.06C275.982 100.06 274.83 99.7029 273.979 99.1045L272.139 101.722ZM307.503 109H305.903V110.6H307.503V109ZM307.503 52.2727V50.6727H305.903V52.2727H307.503ZM319.302 52.2727H320.902V50.6727H319.302V52.2727ZM319.302 73.6008H317.702V75.2009H319.302V73.6008ZM319.662 73.6008V75.2009H320.695L321.121 74.2594L319.662 73.6008ZM321.906 70.1108L320.675 69.0884L320.674 69.0903L321.906 70.1108ZM325.784 67.1193L326.499 68.5504L326.506 68.5471L325.784 67.1193ZM340.354 68.3381L339.511 69.6981L339.518 69.7024L340.354 68.3381ZM346.641 75.6229L345.2 76.3187L345.202 76.3219L346.641 75.6229ZM346.697 99.804L345.248 99.1247L345.246 99.1283L346.697 99.804ZM340.492 107.2L341.353 108.548L341.355 108.547L340.492 107.2ZM325.895 108.557L325.206 110.001L325.213 110.004L325.895 108.557ZM321.989 105.704L320.784 106.756L320.792 106.766L321.989 105.704ZM319.662 102.186L321.12 101.526L320.694 100.586H319.662V102.186ZM319.136 102.186V100.586H317.536V102.186H319.136ZM319.136 109V110.6H320.736V109H319.136ZM323.153 98.7514L322.159 100.006L322.17 100.014L323.153 98.7514ZM332.875 98.7237L333.868 99.9782L333.879 99.9697L332.875 98.7237ZM335.894 94.2919L334.393 93.7381L334.39 93.7463L335.894 94.2919ZM335.922 81.2457L337.424 80.6954V80.6954L335.922 81.2457ZM332.903 76.8693L333.896 75.6148L332.903 76.8693ZM323.125 76.8139L322.154 75.5424L322.145 75.549L323.125 76.8139ZM320.106 81.1349L318.608 80.5715L320.106 81.1349ZM309.103 109V52.2727H305.903V109H309.103ZM307.503 53.8727H319.302V50.6727H307.503V53.8727ZM317.702 52.2727V73.6008H320.902V52.2727H317.702ZM319.302 75.2009H319.662V72.0009H319.302V75.2009ZM321.121 74.2594C321.568 73.2697 322.231 72.2264 323.138 71.1313L320.674 69.0903C319.623 70.3588 318.791 71.6422 318.204 72.9423L321.121 74.2594ZM323.137 71.1332C323.974 70.1253 325.082 69.259 326.499 68.5504L325.068 65.6882C323.309 66.5677 321.832 67.6957 320.675 69.0884L323.137 71.1332ZM326.506 68.5471C327.828 67.8784 329.558 67.5006 331.767 67.5006V64.3006C329.212 64.3006 326.953 64.7353 325.062 65.6915L326.506 68.5471ZM331.767 67.5006C334.573 67.5006 337.143 68.2309 339.511 69.6981L341.196 66.9781C338.32 65.1952 335.165 64.3006 331.767 64.3006V67.5006ZM339.518 69.7024C341.836 71.1225 343.741 73.2961 345.2 76.3187L348.082 74.927C346.403 71.4497 344.116 68.7667 341.189 66.9738L339.518 69.7024ZM345.202 76.3219C346.635 79.2722 347.396 83.0679 347.396 87.7827H350.596C350.596 82.7475 349.787 78.4366 348.08 74.9238L345.202 76.3219ZM347.396 87.7827C347.396 92.3643 346.655 96.1246 345.248 99.1247L348.145 100.483C349.804 96.9464 350.596 92.6925 350.596 87.7827H347.396ZM345.246 99.1283C343.84 102.146 341.959 104.359 339.629 105.852L341.355 108.547C344.27 106.679 346.524 103.962 348.147 100.48L345.246 99.1283ZM339.631 105.851C337.297 107.341 334.68 108.092 331.739 108.092V111.292C335.261 111.292 338.48 110.382 341.353 108.548L339.631 105.851ZM331.739 108.092C329.62 108.092 327.918 107.741 326.577 107.109L325.213 110.004C327.085 110.886 329.279 111.292 331.739 111.292V108.092ZM326.583 107.113C325.16 106.434 324.04 105.605 323.186 104.642L320.792 106.766C321.97 108.093 323.453 109.165 325.206 110.001L326.583 107.113ZM323.194 104.652C322.263 103.584 321.58 102.541 321.12 101.526L318.205 102.846C318.816 104.195 319.684 105.497 320.784 106.756L323.194 104.652ZM319.662 100.586H319.136V103.786H319.662V100.586ZM317.536 102.186V109H320.736V102.186H317.536ZM319.136 107.4H307.503V110.6H319.136V107.4ZM317.453 87.7273C317.453 90.4005 317.823 92.8041 318.606 94.9059L321.605 93.7887C320.985 92.1234 320.653 90.1137 320.653 87.7273H317.453ZM318.606 94.9059C319.391 97.012 320.561 98.7408 322.159 100.006L324.146 97.4969C323.085 96.6569 322.224 95.4496 321.605 93.7887L318.606 94.9059ZM322.17 100.014C323.817 101.295 325.79 101.903 328 101.903V98.7026C326.405 98.7026 325.148 98.2762 324.135 97.4885L322.17 100.014ZM328 101.903C330.23 101.903 332.219 101.284 333.868 99.9782L331.882 97.4692C330.872 98.2687 329.61 98.7026 328 98.7026V101.903ZM333.879 99.9697C335.473 98.6856 336.633 96.9475 337.398 94.8375L334.39 93.7463C333.789 95.4033 332.936 96.6198 331.871 97.4777L333.879 99.9697ZM337.395 94.8457C338.175 92.7321 338.547 90.3504 338.547 87.7273H335.347C335.347 90.0531 335.017 92.0477 334.393 93.7381L337.395 94.8457ZM338.547 87.7273C338.547 85.1263 338.185 82.7729 337.424 80.6954L334.419 81.7961C335.025 83.4487 335.347 85.4163 335.347 87.7273H338.547ZM337.424 80.6954C336.657 78.6013 335.494 76.88 333.896 75.6148L331.909 78.1238C332.97 78.9637 333.82 80.1601 334.419 81.7961L337.424 80.6954ZM333.896 75.6148C332.244 74.307 330.245 73.6905 328 73.6905V76.8905C329.633 76.8905 330.902 77.3265 331.909 78.1238L333.896 75.6148ZM328 73.6905C325.783 73.6905 323.802 74.283 322.154 75.5424L324.096 78.0854C325.106 77.3136 326.376 76.8905 328 76.8905V73.6905ZM322.145 75.549C320.556 76.7796 319.393 78.4855 318.608 80.5715L321.603 81.6984C322.222 80.0543 323.071 78.8795 324.105 78.0788L322.145 75.549ZM318.608 80.5715C317.823 82.6579 317.453 85.0546 317.453 87.7273H320.653C320.653 85.3403 320.985 83.3421 321.603 81.6984L318.608 80.5715ZM368.669 52.2727H370.269V50.6727H368.669V52.2727ZM368.669 109V110.6H370.269V109H368.669ZM356.869 109H355.269V110.6H356.869V109ZM356.869 52.2727V50.6727H355.269V52.2727H356.869ZM367.069 52.2727V109H370.269V52.2727H367.069ZM368.669 107.4H356.869V110.6H368.669V107.4ZM358.469 109V52.2727H355.269V109H358.469ZM356.869 53.8727H368.669V50.6727H356.869V53.8727ZM386.209 107.172L385.416 108.562L385.426 108.567L386.209 107.172ZM378.952 99.5824L377.531 100.317L377.532 100.32L378.952 99.5824ZM378.952 76.3984L377.529 75.667L378.952 76.3984ZM386.126 68.6705L385.308 67.2956L385.304 67.2977L386.126 68.6705ZM404.878 67.2578L404.317 68.7564L404.324 68.759L404.331 68.7615L404.878 67.2578ZM411.249 71.2741L410.123 72.4113L410.129 72.417L411.249 71.2741ZM415.514 78.0327L414.016 78.5933L414.017 78.5967L415.514 78.0327ZM417.038 90.7464V92.3464H418.638V90.7464H417.038ZM381.112 90.7464H379.512V92.3464H381.112V90.7464ZM381.112 83.4339V81.8339H379.512V83.4339H381.112ZM405.931 83.4339V85.0339H407.531V83.4339H405.931ZM404.823 78.919L403.429 79.7044L404.823 78.919ZM401.748 75.8445L400.939 77.2251L400.951 77.2319L400.963 77.2385L401.748 75.8445ZM392.469 75.9553L393.287 77.3305L393.292 77.3272L392.469 75.9553ZM389.256 79.2514L390.647 80.0412L390.652 80.0332L389.256 79.2514ZM388.065 83.8217L386.465 83.8041L386.465 83.8129V83.8217H388.065ZM389.228 96.2308L387.801 96.9532L387.804 96.9601L387.807 96.9668L389.228 96.2308ZM401.305 100.469L400.791 98.9534L401.305 100.469ZM404.102 98.8068L402.999 97.6482L404.102 98.8068ZM405.875 96.0923L405.981 94.4958L404.799 94.4178L404.379 95.5249L405.875 96.0923ZM416.789 96.8125L418.354 97.1432L418.735 95.3375L416.894 95.216L416.789 96.8125ZM413.382 103.682L412.179 102.627L412.178 102.627L413.382 103.682ZM406.789 108.224L407.383 109.71L407.389 109.708L406.789 108.224ZM397.51 108.231C393.351 108.231 389.865 107.39 386.992 105.777L385.426 108.567C388.868 110.499 392.916 111.431 397.51 111.431V108.231ZM387.002 105.782C384.135 104.147 381.931 101.845 380.372 98.8445L377.532 100.32C379.37 103.856 382.004 106.615 385.416 108.562L387.002 105.782ZM380.373 98.8477C378.814 95.8313 378.004 92.2065 378.004 87.9212H374.804C374.804 92.6102 375.692 96.7596 377.531 100.317L380.373 98.8477ZM378.004 87.9212C378.004 83.7541 378.811 80.172 380.375 77.1298L377.529 75.667C375.695 79.2356 374.804 83.3354 374.804 87.9212H378.004ZM380.375 77.1298C381.942 74.0806 384.129 71.7309 386.948 70.0432L385.304 67.2977C381.955 69.3032 379.359 72.1054 377.529 75.667L380.375 77.1298ZM386.944 70.0453C389.763 68.3678 393.108 67.5006 397.039 67.5006V64.3006C392.623 64.3006 388.694 65.2799 385.308 67.2956L386.944 70.0453ZM397.039 67.5006C399.671 67.5006 402.093 67.9242 404.317 68.7564L405.439 65.7592C402.825 64.7817 400.021 64.3006 397.039 64.3006V67.5006ZM404.331 68.7615C406.556 69.5704 408.481 70.7857 410.123 72.4113L412.374 70.137C410.397 68.1802 408.075 66.7179 405.425 65.7541L404.331 68.7615ZM410.129 72.417C411.769 74.0238 413.071 76.0692 414.016 78.5933L417.013 77.472C415.926 74.5672 414.385 72.1069 412.369 70.1313L410.129 72.417ZM414.017 78.5967C414.95 81.0729 415.438 84.0316 415.438 87.5057H418.638C418.638 83.7411 418.11 80.3845 417.012 77.4686L414.017 78.5967ZM415.438 87.5057V90.7464H418.638V87.5057H415.438ZM417.038 89.1465H381.112V92.3464H417.038V89.1465ZM382.712 90.7464V83.4339H379.512V90.7464H382.712ZM381.112 85.0339H405.931V81.8339H381.112V85.0339ZM407.531 83.4339C407.531 81.496 407.107 79.7141 406.217 78.1337L403.429 79.7044C404.016 80.7461 404.331 81.9741 404.331 83.4339H407.531ZM406.217 78.1337C405.335 76.5679 404.099 75.3326 402.533 74.4505L400.963 77.2385C402.019 77.8336 402.833 78.648 403.429 79.7044L406.217 78.1337ZM402.557 74.4638C400.985 73.5431 399.192 73.1088 397.233 73.1088V76.3088C398.708 76.3088 399.926 76.6316 400.939 77.2251L402.557 74.4638ZM397.233 73.1088C395.184 73.1088 393.306 73.5872 391.646 74.5833L393.292 77.3272C394.402 76.6614 395.699 76.3088 397.233 76.3088V73.1088ZM391.651 74.58C390.044 75.5359 388.773 76.8391 387.86 78.4697L390.652 80.0332C391.29 78.8938 392.161 77.9996 393.287 77.3305L391.651 74.58ZM387.864 78.4617C386.946 80.0801 386.486 81.8723 386.465 83.8041L389.665 83.8393C389.68 82.4104 390.015 81.1557 390.647 80.0412L387.864 78.4617ZM386.465 83.8217V90.7741H389.665V83.8217H386.465ZM386.465 90.7741C386.465 93.0746 386.889 95.1517 387.801 96.9532L390.656 95.5084C390.016 94.2446 389.665 92.684 389.665 90.7741H386.465ZM387.807 96.9668C388.737 98.7601 390.065 100.172 391.78 101.162L393.379 98.3904C392.214 97.7183 391.308 96.7668 390.649 95.4948L387.807 96.9668ZM391.78 101.162C393.506 102.158 395.501 102.623 397.704 102.623V99.4227C395.956 99.4227 394.534 99.0568 393.379 98.3904L391.78 101.162ZM397.704 102.623C399.166 102.623 400.542 102.417 401.819 101.984L400.791 98.9534C399.888 99.2595 398.864 99.4227 397.704 99.4227V102.623ZM401.819 101.984C403.112 101.546 404.25 100.876 405.206 99.9654L402.999 97.6482C402.404 98.2148 401.677 98.6531 400.791 98.9534L401.819 101.984ZM405.206 99.9654C406.167 99.0503 406.886 97.9389 407.371 96.6598L404.379 95.5249C404.052 96.3878 403.589 97.0861 402.999 97.6482L405.206 99.9654ZM405.77 97.6889L416.683 98.409L416.894 95.216L405.981 94.4958L405.77 97.6889ZM415.223 96.4818C414.724 98.8435 413.71 100.882 412.179 102.627L414.584 104.737C416.488 102.567 417.745 100.026 418.354 97.1432L415.223 96.4818ZM412.178 102.627C410.664 104.355 408.684 105.733 406.19 106.741L407.389 109.708C410.287 108.537 412.701 106.886 414.585 104.736L412.178 102.627ZM406.195 106.739C403.743 107.72 400.858 108.231 397.51 108.231V111.431C401.179 111.431 404.481 110.871 407.383 109.71L406.195 106.739ZM443.012 109H441.412V110.6H443.012V109ZM443.012 52.2727V50.6727H441.412V52.2727H443.012ZM476.168 54.1285L475.519 55.591L476.168 54.1285ZM482.456 59.2805L481.107 60.1417L481.11 60.1469L482.456 59.2805ZM483.231 72.6591L484.643 73.412L484.646 73.4056L483.231 72.6591ZM479.575 76.7585L480.481 78.0775L480.484 78.0752L479.575 76.7585ZM474.312 79.0021L473.962 77.4409L472.712 77.7213V79.0021H474.312ZM474.312 79.5561H472.712V81.0892L474.244 81.1546L474.312 79.5561ZM480.378 81.3842L479.557 82.7574L479.563 82.7609L480.378 81.3842ZM485.004 86.1207L483.621 86.9254L483.624 86.9309L485.004 86.1207ZM484.533 101.383L483.181 100.527L483.179 100.53L484.533 101.383ZM477.968 106.95L477.286 105.503L477.968 106.95ZM455.006 99.1946H453.406V100.795H455.006V99.1946ZM472.096 97.2834L473.119 98.5138L473.128 98.5065L472.096 97.2834ZM473.26 87.9766L471.906 88.8302V88.8302L473.26 87.9766ZM470.019 85.1513L469.311 86.5862L469.318 86.5899L470.019 85.1513ZM455.006 84.1264V82.5264H453.406V84.1264H455.006ZM455.006 76.0107H453.406V77.6107H455.006V76.0107ZM468.274 75.152L468.93 76.6115L468.939 76.6071L468.274 75.152ZM471.321 72.6591L470.014 71.7355L470.009 71.7431L470.004 71.7507L471.321 72.6591ZM470.268 63.8509L469.217 65.0569L469.224 65.0635L470.268 63.8509ZM455.006 61.9673V60.3673H453.406V61.9673H455.006ZM444.612 109V52.2727H441.412V109H444.612ZM443.012 53.8727H465.725V50.6727H443.012V53.8727ZM465.725 53.8727C469.753 53.8727 472.996 54.4713 475.519 55.591L476.817 52.6661C473.764 51.3113 470.045 50.6727 465.725 50.6727V53.8727ZM475.519 55.591C478.07 56.723 479.9 58.2516 481.107 60.1417L483.804 58.4193C482.204 55.9146 479.842 54.0085 476.817 52.6661L475.519 55.591ZM481.11 60.1469C482.331 62.0427 482.961 64.2471 482.961 66.8146H486.161C486.161 63.6946 485.387 60.8764 483.801 58.4142L481.11 60.1469ZM482.961 66.8146C482.961 68.8138 482.562 70.4979 481.816 71.9126L484.646 73.4056C485.673 71.4595 486.161 69.2473 486.161 66.8146H482.961ZM481.819 71.9062C481.053 73.3426 480.007 74.5158 478.666 75.4419L480.484 78.0752C482.245 76.8592 483.636 75.2995 484.643 73.412L481.819 71.9062ZM478.669 75.4396C477.319 76.3668 475.757 77.0384 473.962 77.4409L474.662 80.5633C476.819 80.0795 478.766 79.2553 480.481 78.0775L478.669 75.4396ZM472.712 79.0021V79.5561H475.912V79.0021H472.712ZM474.244 81.1546C476.134 81.2354 477.898 81.7654 479.557 82.7574L481.199 80.0111C479.091 78.7502 476.811 78.0614 474.38 77.9576L474.244 81.1546ZM479.563 82.7609C481.215 83.7394 482.567 85.1147 483.621 86.9254L486.387 85.3161C485.077 83.0643 483.345 81.2819 481.194 80.0075L479.563 82.7609ZM483.624 86.9309C484.636 88.6541 485.177 90.7633 485.177 93.3224H488.377C488.377 90.3049 487.735 87.6129 486.384 85.3106L483.624 86.9309ZM485.177 93.3224C485.177 96.0535 484.502 98.4391 483.181 100.527L485.885 102.238C487.555 99.5992 488.377 96.6113 488.377 93.3224H485.177ZM483.179 100.53C481.889 102.579 479.953 104.246 477.286 105.503L478.651 108.398C481.782 106.922 484.223 104.877 485.887 102.236L483.179 100.53ZM477.286 105.503C474.658 106.742 471.333 107.4 467.249 107.4V110.6C471.659 110.6 475.48 109.892 478.651 108.398L477.286 105.503ZM467.249 107.4H443.012V110.6H467.249V107.4ZM455.006 100.795H464.784V97.5946H455.006V100.795ZM464.784 100.795C468.267 100.795 471.16 100.142 473.119 98.5137L471.073 96.053C469.967 96.973 467.985 97.5946 464.784 97.5946V100.795ZM473.128 98.5065C475.048 96.8869 475.995 94.7083 475.995 92.1314H472.795C472.795 93.8386 472.21 95.0946 471.065 96.0603L473.128 98.5065ZM475.995 92.1314C475.995 90.2928 475.548 88.6054 474.613 87.123L471.906 88.8302C472.485 89.7483 472.795 90.8308 472.795 92.1314H475.995ZM474.613 87.123C473.681 85.6459 472.363 84.5129 470.719 83.7127L469.318 86.5899C470.482 87.1562 471.324 87.9067 471.906 88.8302L474.613 87.123ZM470.727 83.7164C469.075 82.9013 467.168 82.5264 465.061 82.5264V85.7264C466.794 85.7264 468.193 86.0347 469.311 86.5862L470.727 83.7164ZM465.061 82.5264H455.006V85.7264H465.061V82.5264ZM453.406 84.1264V99.1946H456.606V84.1264H453.406ZM455.006 77.6107H463.897V74.4107H455.006V77.6107ZM463.897 77.6107C465.727 77.6107 467.416 77.2915 468.93 76.6115L467.618 73.6925C466.583 74.1574 465.354 74.4107 463.897 74.4107V77.6107ZM468.939 76.6071C470.469 75.9076 471.72 74.898 472.638 73.5675L470.004 71.7507C469.444 72.5623 468.664 73.2145 467.609 73.6968L468.939 76.6071ZM472.627 73.5827C473.601 72.2047 474.056 70.5873 474.056 68.8089H470.856C470.856 70.0221 470.554 70.9715 470.014 71.7355L472.627 73.5827ZM474.056 68.8089C474.056 66.3277 473.149 64.2196 471.312 62.6382L469.224 65.0635C470.305 65.9935 470.856 67.1908 470.856 68.8089H474.056ZM471.32 62.6448C469.491 61.0509 467.014 60.3673 464.119 60.3673V63.5673C466.542 63.5673 468.164 64.1394 469.217 65.0569L471.32 62.6448ZM464.119 60.3673H455.006V63.5673H464.119V60.3673ZM453.406 61.9673V76.0107H456.606V61.9673H453.406ZM543.192 96.4247L541.785 95.664L541.782 95.6687L543.192 96.4247ZM533.664 106.369L534.453 107.761L534.455 107.759L533.664 106.369ZM506.574 106.341L507.368 104.952L506.574 106.341ZM497.074 96.397L495.664 97.1531L497.074 96.397ZM497.074 64.848L498.484 65.6041V65.6041L497.074 64.848ZM506.574 54.9318L507.363 56.3238L507.368 56.321L506.574 54.9318ZM533.664 54.9318L532.87 56.321L532.878 56.3253L533.664 54.9318ZM543.192 64.848L541.782 65.6041L541.785 65.6087L543.192 64.848ZM532.75 70.4986L531.28 71.1301L531.283 71.1383L532.75 70.4986ZM527.736 64.2386L526.857 65.5752L527.736 64.2386ZM512.557 64.2386L513.437 65.5752L512.557 64.2386ZM507.516 70.4986L506.05 69.8588L506.046 69.8671L507.516 70.4986ZM507.516 90.7741L506.046 91.4056L506.05 91.4139L507.516 90.7741ZM512.557 97.0341L513.437 95.6976V95.6976L512.557 97.0341ZM527.736 97.0341L526.857 95.6976V95.6976L527.736 97.0341ZM532.75 90.7741L531.283 90.1344L531.28 90.1427L532.75 90.7741ZM545.11 80.6364C545.11 86.6231 543.975 91.6103 541.785 95.664L544.6 97.1854C547.099 92.5602 548.31 87.0218 548.31 80.6364H545.11ZM541.782 95.6687C539.589 99.76 536.62 102.847 532.873 104.978L534.455 107.759C538.759 105.311 542.143 101.768 544.602 97.1808L541.782 95.6687ZM532.875 104.977C529.129 107.1 524.899 108.176 520.147 108.176V111.376C525.403 111.376 530.185 110.18 534.453 107.761L532.875 104.977ZM520.147 108.176C515.358 108.176 511.112 107.091 507.368 104.952L505.781 107.73C510.051 110.171 514.854 111.376 520.147 111.376V108.176ZM507.368 104.952C503.64 102.821 500.678 99.7342 498.484 95.641L495.664 97.1531C498.122 101.739 501.495 105.281 505.781 107.73L507.368 104.952ZM498.484 95.641C496.309 91.5855 495.184 86.6056 495.184 80.6364H491.984C491.984 87.0024 493.185 92.5296 495.664 97.1531L498.484 95.641ZM495.184 80.6364C495.184 74.6478 496.31 69.6589 498.484 65.6041L495.664 64.092C493.184 68.7161 491.984 74.2528 491.984 80.6364H495.184ZM498.484 65.6041C500.678 61.5118 503.638 58.4356 507.363 56.3238L505.785 53.5399C501.497 55.9706 498.123 59.5053 495.664 64.092L498.484 65.6041ZM507.368 56.321C511.112 54.1819 515.358 53.0972 520.147 53.0972V49.8972C514.854 49.8972 510.051 51.1022 505.781 53.5426L507.368 56.321ZM520.147 53.0972C524.897 53.0972 529.125 54.1809 532.87 56.321L534.458 53.5426C530.189 51.1032 525.405 49.8972 520.147 49.8972V53.0972ZM532.878 56.3253C536.622 58.4377 539.589 61.5136 541.782 65.6041L544.602 64.092C542.142 59.5034 538.757 55.9685 534.45 53.5383L532.878 56.3253ZM541.785 65.6087C543.975 69.6625 545.11 74.6496 545.11 80.6364H548.31C548.31 74.2509 547.099 68.7125 544.6 64.0873L541.785 65.6087ZM536.15 80.6364C536.15 76.479 535.529 72.8675 534.216 69.8588L531.283 71.1383C532.371 73.6325 532.95 76.7796 532.95 80.6364H536.15ZM534.22 69.8671C532.935 66.8745 531.077 64.522 528.616 62.9021L526.857 65.5752C528.716 66.799 530.202 68.6198 531.28 71.13L534.22 69.8671ZM528.616 62.9021C526.163 61.288 523.32 60.5058 520.147 60.5058V63.7058C522.772 63.7058 524.988 64.3455 526.857 65.5752L528.616 62.9021ZM520.147 60.5058C516.974 60.5058 514.13 61.288 511.678 62.9021L513.437 65.5752C515.305 64.3455 517.521 63.7058 520.147 63.7058V60.5058ZM511.678 62.9021C509.219 64.5205 507.354 66.8699 506.05 69.8588L508.983 71.1383C510.079 68.6245 511.575 66.8006 513.437 65.5752L511.678 62.9021ZM506.046 69.8671C504.755 72.8732 504.143 76.4816 504.143 80.6364H507.343C507.343 76.7769 507.914 73.6268 508.986 71.13L506.046 69.8671ZM504.143 80.6364C504.143 84.7911 504.755 88.3995 506.046 91.4056L508.986 90.1427C507.914 87.646 507.343 84.4958 507.343 80.6364H504.143ZM506.05 91.4139C507.354 94.4029 509.219 96.7523 511.678 98.3706L513.437 95.6976C511.575 94.4722 510.079 92.6483 508.983 90.1344L506.05 91.4139ZM511.678 98.3706C514.13 99.9847 516.974 100.767 520.147 100.767V97.5669C517.521 97.5669 515.305 96.9273 513.437 95.6976L511.678 98.3706ZM520.147 100.767C523.32 100.767 526.163 99.9847 528.616 98.3706L526.857 95.6976C524.988 96.9273 522.772 97.5669 520.147 97.5669V100.767ZM528.616 98.3706C531.077 96.7507 532.935 94.3982 534.22 91.4056L531.28 90.1427C530.202 92.6529 528.716 94.4737 526.857 95.6976L528.616 98.3706ZM534.216 91.4139C535.529 88.4052 536.15 84.7938 536.15 80.6364H532.95C532.95 84.4932 532.371 87.6402 531.283 90.1344L534.216 91.4139ZM604.206 96.4247L602.798 95.664L602.796 95.6687L604.206 96.4247ZM594.678 106.369L595.467 107.761L595.469 107.759L594.678 106.369ZM567.588 106.341L568.382 104.952L567.588 106.341ZM558.087 96.397L556.677 97.1531L558.087 96.397ZM558.087 64.848L559.497 65.6041V65.6041L558.087 64.848ZM567.588 54.9318L568.377 56.3238L568.382 56.321L567.588 54.9318ZM594.678 54.9318L593.884 56.321L593.891 56.3253L594.678 54.9318ZM604.206 64.848L602.796 65.6041L602.798 65.6087L604.206 64.848ZM593.763 70.4986L592.293 71.1301L592.297 71.1383L593.763 70.4986ZM588.75 64.2386L587.87 65.5752L588.75 64.2386ZM573.571 64.2386L574.451 65.5752L573.571 64.2386ZM568.53 70.4986L567.063 69.8588L567.06 69.8671L568.53 70.4986ZM568.53 90.7741L567.06 91.4056L567.063 91.4139L568.53 90.7741ZM573.571 97.0341L574.451 95.6976V95.6976L573.571 97.0341ZM588.75 97.0341L587.87 95.6976V95.6976L588.75 97.0341ZM593.763 90.7741L592.297 90.1344L592.293 90.1427L593.763 90.7741ZM606.124 80.6364C606.124 86.6231 604.989 91.6103 602.798 95.664L605.614 97.1854C608.113 92.5602 609.324 87.0218 609.324 80.6364H606.124ZM602.796 95.6687C600.602 99.76 597.633 102.847 593.886 104.978L595.469 107.759C599.773 105.311 603.156 101.768 605.616 97.1808L602.796 95.6687ZM593.889 104.977C590.143 107.1 585.913 108.176 581.161 108.176V111.376C586.417 111.376 591.198 110.18 595.467 107.761L593.889 104.977ZM581.161 108.176C576.371 108.176 572.125 107.091 568.382 104.952L566.794 107.73C571.065 110.171 575.867 111.376 581.161 111.376V108.176ZM568.382 104.952C564.653 102.821 561.692 99.7342 559.497 95.641L556.677 97.1531C559.136 101.739 562.509 105.281 566.794 107.73L568.382 104.952ZM559.497 95.641C557.323 91.5855 556.197 86.6056 556.197 80.6364H552.997C552.997 87.0024 554.198 92.5296 556.677 97.1531L559.497 95.641ZM556.197 80.6364C556.197 74.6478 557.323 69.6589 559.497 65.6041L556.677 64.092C554.198 68.7161 552.997 74.2528 552.997 80.6364H556.197ZM559.497 65.6041C561.692 61.5118 564.651 58.4356 568.377 56.3238L566.799 53.5399C562.511 55.9706 559.137 59.5053 556.677 64.092L559.497 65.6041ZM568.382 56.321C572.125 54.1819 576.371 53.0972 581.161 53.0972V49.8972C575.867 49.8972 571.065 51.1022 566.794 53.5426L568.382 56.321ZM581.161 53.0972C585.911 53.0972 590.139 54.1809 593.884 56.321L595.471 53.5426C591.202 51.1032 586.419 49.8972 581.161 49.8972V53.0972ZM593.891 56.3253C597.635 58.4377 600.603 61.5136 602.796 65.6041L605.616 64.092C603.156 59.5034 599.771 55.9685 595.464 53.5383L593.891 56.3253ZM602.798 65.6087C604.989 69.6625 606.124 74.6496 606.124 80.6364H609.324C609.324 74.2509 608.113 68.7125 605.614 64.0873L602.798 65.6087ZM597.164 80.6364C597.164 76.479 596.543 72.8675 595.23 69.8588L592.297 71.1383C593.385 73.6325 593.964 76.7796 593.964 80.6364H597.164ZM595.234 69.8671C593.948 66.8745 592.091 64.522 589.63 62.9021L587.87 65.5752C589.73 66.799 591.215 68.6198 592.293 71.13L595.234 69.8671ZM589.63 62.9021C587.177 61.288 584.333 60.5058 581.161 60.5058V63.7058C583.786 63.7058 586.002 64.3455 587.87 65.5752L589.63 62.9021ZM581.161 60.5058C577.988 60.5058 575.144 61.288 572.691 62.9021L574.451 65.5752C576.319 64.3455 578.535 63.7058 581.161 63.7058V60.5058ZM572.691 62.9021C570.232 64.5205 568.367 66.8699 567.063 69.8588L569.996 71.1383C571.093 68.6245 572.589 66.8006 574.451 65.5752L572.691 62.9021ZM567.06 69.8671C565.768 72.8732 565.157 76.4816 565.157 80.6364H568.357C568.357 76.7769 568.928 73.6268 570 71.13L567.06 69.8671ZM565.157 80.6364C565.157 84.7911 565.768 88.3995 567.06 91.4056L570 90.1427C568.928 87.646 568.357 84.4958 568.357 80.6364H565.157ZM567.063 91.4139C568.367 94.4029 570.232 96.7523 572.691 98.3706L574.451 95.6976C572.589 94.4722 571.093 92.6483 569.996 90.1344L567.063 91.4139ZM572.691 98.3706C575.144 99.9847 577.988 100.767 581.161 100.767V97.5669C578.535 97.5669 576.319 96.9273 574.451 95.6976L572.691 98.3706ZM581.161 100.767C584.333 100.767 587.177 99.9847 589.63 98.3706L587.87 95.6976C586.002 96.9273 583.786 97.5669 581.161 97.5669V100.767ZM589.63 98.3706C592.091 96.7507 593.948 94.3982 595.234 91.4056L592.293 90.1427C591.215 92.6529 589.73 94.4737 587.87 95.6976L589.63 98.3706ZM595.23 91.4139C596.543 88.4052 597.164 84.7938 597.164 80.6364H593.964C593.964 84.4932 593.385 87.6402 592.297 90.1344L595.23 91.4139ZM616.608 109H615.008V110.6H616.608V109ZM616.608 52.2727V50.6727H615.008V52.2727H616.608ZM628.602 52.2727H630.202V50.6727H628.602V52.2727ZM628.602 77.2848H627.002V78.8848H628.602V77.2848ZM629.35 77.2848V78.8848H630.109L630.589 78.2965L629.35 77.2848ZM649.764 52.2727V50.6727H649.004L648.524 51.261L649.764 52.2727ZM664.139 52.2727L665.371 53.2937L667.544 50.6727H664.139V52.2727ZM643.088 77.6726L641.856 76.6516L641.089 77.5776L641.765 78.5722L643.088 77.6726ZM664.389 109V110.6H667.411L665.712 108.1L664.389 109ZM650.041 109L648.709 109.887L649.184 110.6H650.041V109ZM634.502 85.6776L635.833 84.7904L634.634 82.9909L633.264 84.6636L634.502 85.6776ZM628.602 92.8793L627.364 91.8653L627.002 92.3076V92.8793H628.602ZM628.602 109V110.6H630.202V109H628.602ZM618.208 109V52.2727H615.008V109H618.208ZM616.608 53.8727H628.602V50.6727H616.608V53.8727ZM627.002 52.2727V77.2848H630.202V52.2727H627.002ZM628.602 78.8848H629.35V75.6848H628.602V78.8848ZM630.589 78.2965L651.003 53.2844L648.524 51.261L628.11 76.2731L630.589 78.2965ZM649.764 53.8727H664.139V50.6727H649.764V53.8727ZM662.907 51.2517L641.856 76.6516L644.32 78.6936L665.371 53.2937L662.907 51.2517ZM641.765 78.5722L663.066 109.9L665.712 108.1L644.411 76.773L641.765 78.5722ZM664.389 107.4H650.041V110.6H664.389V107.4ZM651.372 108.113L635.833 84.7904L633.17 86.5647L648.709 109.887L651.372 108.113ZM633.264 84.6636L627.364 91.8653L629.839 93.8932L635.739 86.6915L633.264 84.6636ZM627.002 92.8793V109H630.202V92.8793H627.002ZM628.602 107.4H616.608V110.6H628.602V107.4ZM700.702 68.5874L699.11 68.7453L699.253 70.1874H700.702V68.5874ZM686.049 62.3551L686.64 63.8421L686.649 63.8386L686.657 63.835L686.049 62.3551ZM682.947 64.5987L681.667 63.6387L681.661 63.6467L681.655 63.6547L682.947 64.5987ZM681.894 67.8672L683.493 67.9253L683.494 67.8963V67.8672H681.894ZM682.531 70.5263L681.165 71.3592L681.173 71.3713L681.18 71.3831L682.531 70.5263ZM684.498 72.4929L683.611 73.8242L683.621 73.8311L683.631 73.8378L684.498 72.4929ZM687.379 73.9055L686.82 75.4047L686.831 75.4089L686.842 75.4129L687.379 73.9055ZM690.869 74.9027L691.241 73.3466L691.23 73.3439L691.218 73.3413L690.869 74.9027ZM695.965 76.1214L695.593 77.6776L695.604 77.6803L695.616 77.6828L695.965 76.1214ZM702.779 78.3374L702.127 79.7984L702.779 78.3374ZM708.153 81.7443L709.217 80.5493L708.153 81.7443ZM711.671 86.5085L710.214 87.1706L710.22 87.1827L711.671 86.5085ZM712.972 92.7962L714.572 92.8047L714.573 92.7942L714.572 92.7837L712.972 92.7962ZM710.313 101.826L708.995 100.919L708.994 100.921L710.313 101.826ZM702.779 107.726L703.404 109.199L703.408 109.197L702.779 107.726ZM678.986 107.698L678.372 109.176L678.375 109.177L678.986 107.698ZM671.064 101.466L669.741 102.366L669.748 102.376L671.064 101.466ZM668.1 91.1896V89.5896H666.464L666.501 91.2258L668.1 91.1896ZM679.706 91.1896L681.302 91.0811L681.201 89.5896H679.706V91.1896ZM681.34 95.9538L680.063 96.9168L680.07 96.9272L680.078 96.9374L681.34 95.9538ZM685.246 98.8068L684.655 100.294L684.665 100.298L684.675 100.301L685.246 98.8068ZM696.104 98.8622L695.522 97.3717L695.516 97.3741L696.104 98.8622ZM699.622 96.397L700.877 97.3884L699.622 96.397ZM699.732 89.5554L698.514 90.5924L698.52 90.5998L698.527 90.6072L699.732 89.5554ZM696.464 87.3395L695.834 88.8101L695.841 88.813L696.464 87.3395ZM691.229 85.6776L690.839 87.2294L690.847 87.2312L690.854 87.233L691.229 85.6776ZM685.052 84.1264L685.442 82.5746L685.43 82.5718L685.052 84.1264ZM673.723 78.6697L672.657 79.863L673.723 78.6697ZM669.596 68.6705L671.196 68.6775L671.196 68.6697L671.196 68.6618L669.596 68.6705ZM672.338 59.6683L671.044 58.7278L671.039 58.7339L672.338 59.6683ZM702.115 53.6577L701.447 55.1119L701.451 55.1134L702.115 53.6577ZM709.482 59.6683L708.161 60.5711V60.5711L709.482 59.6683ZM712.197 68.5874V70.1874H713.823L713.797 68.5611L712.197 68.5874ZM702.294 68.4295C702.032 65.7826 700.873 63.6196 698.798 62.0915L696.9 64.6684C698.186 65.6148 698.929 66.9233 699.11 68.7453L702.294 68.4295ZM698.798 62.0915C696.755 60.5877 694.102 59.9241 691.007 59.9241V63.1241C693.674 63.1241 695.582 63.6978 696.9 64.6684L698.798 62.0915ZM691.007 59.9241C688.909 59.9241 687.036 60.2198 685.441 60.8752L686.657 63.835C687.759 63.3825 689.191 63.1241 691.007 63.1241V59.9241ZM685.458 60.8681C683.894 61.4897 682.598 62.3978 681.667 63.6387L684.227 65.5587C684.737 64.8792 685.508 64.2915 686.64 63.8421L685.458 60.8681ZM681.655 63.6547C680.748 64.8961 680.294 66.3181 680.294 67.8672H683.494C683.494 66.9788 683.743 66.2218 684.239 65.5427L681.655 63.6547ZM680.295 67.809C680.249 69.091 680.518 70.2968 681.165 71.3592L683.898 69.6933C683.622 69.2416 683.466 68.6746 683.493 67.9253L680.295 67.809ZM681.18 71.3831C681.793 72.3495 682.615 73.1604 683.611 73.8242L685.386 71.1616C684.719 70.7175 684.23 70.2172 683.883 69.6694L681.18 71.3831ZM683.631 73.8378C684.574 74.4454 685.641 74.9651 686.82 75.4047L687.938 72.4064C686.938 72.0335 686.084 71.6114 685.365 71.148L683.631 73.8378ZM686.842 75.4129C687.998 75.8244 689.225 76.1742 690.519 76.464L691.218 73.3413C690.039 73.0772 688.938 72.7622 687.915 72.3982L686.842 75.4129ZM690.497 76.4588L695.593 77.6776L696.338 74.5653L691.241 73.3466L690.497 76.4588ZM695.616 77.6828C697.998 78.2162 700.167 78.9233 702.127 79.7984L703.432 76.8763C701.255 75.9048 698.881 75.1346 696.315 74.5601L695.616 77.6828ZM702.127 79.7984C704.063 80.6624 705.711 81.7126 707.089 82.9394L709.217 80.5493C707.566 79.08 705.632 77.8589 703.432 76.8763L702.127 79.7984ZM707.089 82.9394C708.438 84.1405 709.476 85.5476 710.214 87.1706L713.127 85.8464C712.203 83.8132 710.896 82.0442 709.217 80.5493L707.089 82.9394ZM710.22 87.1827C710.957 88.7707 711.356 90.6346 711.372 92.8087L714.572 92.7837C714.552 90.2304 714.083 87.9026 713.122 85.8343L710.22 87.1827ZM711.372 92.7877C711.356 95.9789 710.546 98.6666 708.995 100.919L711.631 102.733C713.589 99.8888 714.552 96.5567 714.572 92.8047L711.372 92.7877ZM708.994 100.921C707.457 103.161 705.206 104.95 702.151 106.254L703.408 109.197C706.927 107.695 709.698 105.551 711.633 102.731L708.994 100.921ZM702.155 106.253C699.134 107.533 695.415 108.203 690.952 108.203V111.403C695.721 111.403 699.888 110.689 703.404 109.199L702.155 106.253ZM690.952 108.203C686.532 108.203 682.76 107.526 679.597 106.219L678.375 109.177C682.008 110.677 686.213 111.403 690.952 111.403V108.203ZM679.6 106.221C676.477 104.923 674.091 103.031 672.38 100.556L669.748 102.376C671.841 105.404 674.737 107.666 678.372 109.176L679.6 106.221ZM672.387 100.566C670.712 98.1024 669.787 94.9938 669.7 91.1534L666.501 91.2258C666.599 95.5473 667.649 99.2897 669.741 102.366L672.387 100.566ZM668.1 92.7896H679.706V89.5896H668.1V92.7896ZM678.11 91.2981C678.256 93.4486 678.882 95.3499 680.063 96.9168L682.618 94.9909C681.879 94.0094 681.415 92.7346 681.302 91.0811L678.11 91.2981ZM680.078 96.9374C681.249 98.4391 682.792 99.5528 684.655 100.294L685.837 97.3201C684.45 96.7683 683.389 95.9799 682.602 94.9702L680.078 96.9374ZM684.675 100.301C686.53 101.01 688.584 101.349 690.813 101.349V98.1486C688.907 98.1486 687.249 97.8593 685.817 97.3122L684.675 100.301ZM690.813 101.349C692.995 101.349 694.967 101.032 696.692 100.35L695.516 97.3741C694.25 97.8745 692.694 98.1486 690.813 98.1486V101.349ZM696.686 100.353C698.409 99.6803 699.836 98.7074 700.877 97.3884L698.366 95.4056C697.745 96.1918 696.827 96.8623 695.522 97.3717L696.686 100.353ZM700.877 97.3884C701.936 96.0478 702.468 94.4873 702.468 92.7685H699.268C699.268 93.7826 698.969 94.6412 698.366 95.4056L700.877 97.3884ZM702.468 92.7685C702.468 91.1518 701.977 89.6946 700.938 88.5036L698.527 90.6072C699.002 91.152 699.268 91.8369 699.268 92.7685H702.468ZM700.951 88.5184C700.002 87.4034 698.676 86.5382 697.087 85.8659L695.841 88.813C697.132 89.3595 697.986 89.9716 698.514 90.5924L700.951 88.5184ZM697.094 85.8689C695.566 85.2137 693.729 84.6345 691.604 84.1221L690.854 87.233C692.865 87.7177 694.519 88.2465 695.834 88.8101L697.094 85.8689ZM691.619 84.1257L685.442 82.5746L684.662 85.6782L690.839 87.2294L691.619 84.1257ZM685.43 82.5718C680.823 81.4511 677.31 79.7281 674.789 77.4765L672.657 79.863C675.677 82.5602 679.716 84.475 684.674 85.6811L685.43 82.5718ZM674.789 77.4765C672.407 75.3484 671.179 72.4767 671.196 68.6775L667.996 68.6634C667.976 73.2477 669.5 77.0422 672.657 79.863L674.789 77.4765ZM671.196 68.6618C671.179 65.5347 672.005 62.8709 673.637 60.6027L671.039 58.7339C668.978 61.5993 667.976 64.9369 667.996 68.6791L671.196 68.6618ZM673.633 60.6088C675.313 58.2965 677.635 56.4607 680.659 55.1205L679.363 52.1949C675.887 53.7353 673.094 55.9066 671.044 58.7278L673.633 60.6088ZM680.659 55.1205C683.674 53.7842 687.141 53.0972 691.09 53.0972V49.8972C686.767 49.8972 682.847 50.6505 679.363 52.1949L680.659 55.1205ZM691.09 53.0972C695.12 53.0972 698.558 53.7863 701.447 55.1119L702.782 52.2034C699.393 50.6484 695.482 49.8972 691.09 49.8972V53.0972ZM701.451 55.1134C704.375 56.4472 706.59 58.2723 708.161 60.5711L710.803 58.7655C708.866 55.9308 706.17 53.7488 702.779 52.202L701.451 55.1134ZM708.161 60.5711C709.724 62.8567 710.546 65.519 710.597 68.6136L713.797 68.5611C713.737 64.8971 712.75 61.6134 710.803 58.7655L708.161 60.5711ZM712.197 66.9874H700.702V70.1874H712.197V66.9874Z" fill="#D3FFD5"/>
</g>
</g>
<defs>
<filter id="filter0_f_126_134" x="549.701" y="-610.299" width="1465.5" height="1462.22" filterUnits="userSpaceOnUse" color-interpolation-filters="sRGB">
<feFlood flood-opacity="0" result="BackgroundImageFix"/>
<feBlend mode="normal" in="SourceGraphic" in2="BackgroundImageFix" result="shape"/>
<feGaussianBlur stdDeviation="250" result="effect1_foregroundBlur_126_134"/>
</filter>
<filter id="filter1_f_126_134" x="-434" y="-294" width="1278" height="1253.17" filterUnits="userSpaceOnUse" color-interpolation-filters="sRGB">
<feFlood flood-opacity="0" result="BackgroundImageFix"/>
<feBlend mode="normal" in="SourceGraphic" in2="BackgroundImageFix" result="shape"/>
<feGaussianBlur stdDeviation="200" result="effect1_foregroundBlur_126_134"/>
</filter>
<filter id="filter2_f_126_134" x="-300" y="-306" width="1622.58" height="811.049" filterUnits="userSpaceOnUse" color-interpolation-filters="sRGB">
<feFlood flood-opacity="0" result="BackgroundImageFix"/>
<feBlend mode="normal" in="SourceGraphic" in2="BackgroundImageFix" result="shape"/>
<feGaussianBlur stdDeviation="150" result="effect1_foregroundBlur_126_134"/>
</filter>
<filter id="filter3_d_126_134" x="73.8558" y="49.032" width="659.117" height="80.7991" filterUnits="userSpaceOnUse" color-interpolation-filters="sRGB">
<feFlood flood-opacity="0" result="BackgroundImageFix"/>
<feColorMatrix in="SourceAlpha" type="matrix" values="0 0 0 0 0 0 0 0 0 0 0 0 0 0 0 0 0 0 127 0" result="hardAlpha"/>
<feOffset dx="10" dy="10"/>
<feGaussianBlur stdDeviation="5"/>
<feComposite in2="hardAlpha" operator="out"/>
<feColorMatrix type="matrix" values="0 0 0 0 0.341667 0 0 0 0 0.0555208 0 0 0 0 0.0555208 0 0 0 0.25 0"/>
<feBlend mode="normal" in2="BackgroundImageFix" result="effect1_dropShadow_126_134"/>
<feBlend mode="normal" in="SourceGraphic" in2="effect1_dropShadow_126_134" result="shape"/>
</filter>
<clipPath id="clip0_126_134">
<rect width="1355" height="629" fill="white"/>
</clipPath>
</defs>
</svg>
