<svg width="41" height="41" viewBox="0 0 41 41" fill="none" xmlns="http://www.w3.org/2000/svg">
<g clip-path="url(#clip0_126_178)">
<path d="M28.75 16.4998C28.75 18.6215 27.9071 20.6563 26.4069 22.1566C24.9066 23.6569 22.8717 24.4998 20.75 24.4998C18.6283 24.4998 16.5934 23.6569 15.0931 22.1566C13.5929 20.6563 12.75 18.6215 12.75 16.4998C12.75 14.378 13.5929 12.3432 15.0931 10.8429C16.5934 9.34261 18.6283 8.49976 20.75 8.49976C22.8717 8.49976 24.9066 9.34261 26.4069 10.8429C27.9071 12.3432 28.75 14.378 28.75 16.4998Z" fill="white"/>
<path fill-rule="evenodd" clip-rule="evenodd" d="M19.934 40.4838C9.267 40.0558 0.75 31.2718 0.75 20.4998C0.75 9.45376 9.704 0.499756 20.75 0.499756C31.796 0.499756 40.75 9.45376 40.75 20.4998C40.75 31.5458 31.796 40.4998 20.75 40.4998C20.6587 40.5003 20.5673 40.5003 20.476 40.4998C20.295 40.4998 20.114 40.4938 19.934 40.4838ZM7.916 33.1198C7.76646 32.6903 7.71557 32.2327 7.76708 31.7809C7.8186 31.3291 7.97121 30.8948 8.21358 30.51C8.45595 30.1253 8.78186 29.8001 9.16712 29.5585C9.55238 29.317 9.9871 29.1653 10.439 29.1148C18.235 28.2518 23.313 28.3298 31.071 29.1328C31.5235 29.1799 31.9593 29.3296 32.3452 29.5706C32.7311 29.8116 33.0568 30.1375 33.2977 30.5235C33.5386 30.9094 33.6883 31.3452 33.7353 31.7977C33.7823 32.2503 33.7254 32.7075 33.569 33.1348C36.8939 29.7707 38.756 25.2297 38.75 20.4998C38.75 10.5588 30.691 2.49976 20.75 2.49976C10.809 2.49976 2.75 10.5588 2.75 20.4998C2.75 25.4158 4.721 29.8718 7.916 33.1198Z" fill="white"/>
</g>
<defs>
<clipPath id="clip0_126_178">
<rect width="40" height="40.0004" fill="white" transform="translate(0.75 0.499756)"/>
</clipPath>
</defs>
</svg>
