<svg width="41" height="40" viewBox="0 0 41 40" fill="none" xmlns="http://www.w3.org/2000/svg">
<g clip-path="url(#clip0_126_1477)">
<path d="M28.4165 15.9998C28.4165 18.1215 27.5736 20.1563 26.0734 21.6566C24.5731 23.1569 22.5382 23.9998 20.4165 23.9998C18.2948 23.9998 16.2599 23.1569 14.7596 21.6566C13.2594 20.1563 12.4165 18.1215 12.4165 15.9998C12.4165 13.878 13.2594 11.8432 14.7596 10.3429C16.2599 8.84261 18.2948 7.99976 20.4165 7.99976C22.5382 7.99976 24.5731 8.84261 26.0734 10.3429C27.5736 11.8432 28.4165 13.878 28.4165 15.9998Z" fill="white"/>
<path fill-rule="evenodd" clip-rule="evenodd" d="M19.6005 39.9838C8.9335 39.5558 0.416504 30.7718 0.416504 19.9998C0.416504 8.95376 9.3705 -0.000244141 20.4165 -0.000244141C31.4625 -0.000244141 40.4165 8.95376 40.4165 19.9998C40.4165 31.0458 31.4625 39.9998 20.4165 39.9998C20.3252 40.0003 20.2338 40.0003 20.1425 39.9998C19.9615 39.9998 19.7805 39.9938 19.6005 39.9838ZM7.5825 32.6198C7.43297 32.1903 7.38207 31.7327 7.43359 31.2809C7.4851 30.8291 7.63771 30.3948 7.88008 30.01C8.12245 29.6253 8.44837 29.3001 8.83363 29.0585C9.21889 28.817 9.6536 28.6653 10.1055 28.6148C17.9015 27.7518 22.9795 27.8298 30.7375 28.6328C31.19 28.6799 31.6258 28.8296 32.0117 29.0706C32.3976 29.3116 32.7234 29.6375 32.9642 30.0235C33.2051 30.4094 33.3548 30.8452 33.4018 31.2977C33.4488 31.7503 33.3919 32.2075 33.2355 32.6348C36.5604 29.2707 38.4225 24.7297 38.4165 19.9998C38.4165 10.0588 30.3575 1.99976 20.4165 1.99976C10.4755 1.99976 2.4165 10.0588 2.4165 19.9998C2.4165 24.9158 4.3875 29.3718 7.5825 32.6198Z" fill="white"/>
</g>
<defs>
<clipPath id="clip0_126_1477">
<rect width="40" height="40.0004" fill="white" transform="translate(0.416504 -0.000244141)"/>
</clipPath>
</defs>
</svg>
