<svg width="57" height="54" viewBox="0 0 57 54" fill="none" xmlns="http://www.w3.org/2000/svg">
<path d="M46.3125 6.29688H16.0312C14.3778 6.29688 12.7921 6.90762 11.6229 7.99474C10.4537 9.08187 9.79688 10.5563 9.79688 12.0938V46.875C9.79688 47.0946 9.89071 47.3053 10.0577 47.4606C10.2248 47.6159 10.4513 47.7031 10.6875 47.7031H42.75C42.9862 47.7031 43.2127 47.6159 43.3798 47.4606C43.5468 47.3053 43.6406 47.0946 43.6406 46.875C43.6406 46.6554 43.5468 46.4447 43.3798 46.2894C43.2127 46.1341 42.9862 46.0469 42.75 46.0469H11.5781V45.2188C11.5781 44.1206 12.0473 43.0674 12.8824 42.2909C13.7175 41.5144 14.8502 41.0781 16.0312 41.0781H46.3125C46.5487 41.0781 46.7752 40.9909 46.9423 40.8356C47.1093 40.6803 47.2031 40.4696 47.2031 40.25V7.125C47.2031 6.90537 47.1093 6.69473 46.9423 6.53943C46.7752 6.38412 46.5487 6.29688 46.3125 6.29688ZM45.4219 39.4219H16.0312C15.2015 39.4216 14.38 39.5757 13.6152 39.8751C12.8505 40.1744 12.1578 40.6131 11.5781 41.1651V12.0938C11.5781 10.9956 12.0473 9.9424 12.8824 9.16589C13.7175 8.38937 14.8502 7.95312 16.0312 7.95312H45.4219V39.4219Z" fill="white"/>
</svg>
