<svg width="47" height="37" viewBox="0 0 47 37" fill="none" xmlns="http://www.w3.org/2000/svg">
<path d="M38.1875 4.4375H13.2188C11.8554 4.4375 10.5478 4.85234 9.58378 5.59077C8.61973 6.32919 8.07813 7.33071 8.07812 8.375V32C8.07812 32.1492 8.1555 32.2923 8.29322 32.3977C8.43094 32.5032 8.61773 32.5625 8.8125 32.5625H35.25C35.4448 32.5625 35.6316 32.5032 35.7693 32.3977C35.907 32.2923 35.9844 32.1492 35.9844 32C35.9844 31.8508 35.907 31.7077 35.7693 31.6023C35.6316 31.4968 35.4448 31.4375 35.25 31.4375H9.54688V30.875C9.54688 30.1291 9.93373 29.4137 10.6223 28.8863C11.311 28.3588 12.2449 28.0625 13.2188 28.0625H38.1875C38.3823 28.0625 38.5691 28.0032 38.7068 27.8977C38.8445 27.7923 38.9219 27.6492 38.9219 27.5V5C38.9219 4.85082 38.8445 4.70774 38.7068 4.60225C38.5691 4.49676 38.3823 4.4375 38.1875 4.4375ZM37.4531 26.9375H13.2188C12.5345 26.9373 11.8572 27.042 11.2266 27.2453C10.596 27.4487 10.0249 27.7466 9.54688 28.1216V8.375C9.54688 7.62908 9.93373 6.91371 10.6223 6.38626C11.311 5.85882 12.2449 5.5625 13.2188 5.5625H37.4531V26.9375Z" fill="white"/>
</svg>
