<svg width="17" height="21" viewBox="0 0 17 21" fill="none" xmlns="http://www.w3.org/2000/svg">
<path d="M1.625 20.5C1.35978 20.5 1.10543 20.3946 0.917893 20.2071C0.730357 20.0196 0.625 19.7652 0.625 19.5V1.5C0.625 1.23478 0.730357 0.98043 0.917893 0.792893C1.10543 0.605357 1.35978 0.5 1.625 0.5H15.625C15.8902 0.5 16.1446 0.605357 16.3321 0.792893C16.5196 0.98043 16.625 1.23478 16.625 1.5V19.5C16.625 19.7652 16.5196 20.0196 16.3321 20.2071C16.1446 20.3946 15.8902 20.5 15.625 20.5H1.625ZM11.625 14.5L16.625 10.5L11.625 6.5V9.5H5.625V11.5H11.625V14.5Z" fill="white"/>
</svg>
