<svg width="58" height="45" viewBox="0 0 58 45" fill="none" xmlns="http://www.w3.org/2000/svg">
<path d="M55.2083 0.3125C55.7218 0.312523 56.2179 0.506693 56.6049 0.859103C56.9919 1.21151 57.2436 1.69832 57.3135 2.2295L57.3333 2.53125V42.4688C57.3331 43.0309 57.1286 43.572 56.761 43.9828C56.3935 44.3936 55.8903 44.6433 55.3531 44.6817C54.816 44.72 54.2849 44.544 53.8673 44.1892C53.4496 43.8345 53.1765 43.3274 53.1031 42.7705L53.0833 42.4688V2.53125C53.0833 1.9428 53.3072 1.37845 53.7057 0.962357C54.1042 0.54626 54.6447 0.3125 55.2083 0.3125ZM29.595 5.89488L29.8301 5.61679C30.318 5.10744 30.9671 4.80145 31.6557 4.75624C32.3443 4.71104 33.025 4.92972 33.5701 5.37125L33.8365 5.61679L47.9946 20.4025C48.4825 20.9119 48.7755 21.5897 48.8188 22.3087C48.8621 23.0276 48.6527 23.7383 48.2298 24.3075L47.9946 24.5827L33.8393 39.3862C33.3319 39.9287 32.6445 40.2471 31.9188 40.2756C31.1931 40.3042 30.4846 40.0407 29.9396 39.5396C29.3946 39.0385 29.0547 38.338 28.99 37.5828C28.9254 36.8276 29.1409 36.0753 29.5921 35.4812L29.8273 35.2031L39.1461 25.4583H3.49996C2.80598 25.4582 2.13617 25.1922 1.61757 24.7107C1.09897 24.2292 0.767655 23.5657 0.686459 22.8461L0.666626 22.5C0.666718 21.7754 0.921502 21.076 1.38265 20.5346C1.8438 19.9931 2.47925 19.6472 3.16846 19.5624L3.49996 19.5417H39.1546L29.8301 9.79987C29.3423 9.29047 29.0492 8.61272 29.0059 7.89376C28.9626 7.17481 29.1721 6.46407 29.595 5.89488Z" fill="#BDD7F5"/>
</svg>
