<svg width="58" height="45" viewBox="0 0 58 45" fill="none" xmlns="http://www.w3.org/2000/svg">
<path d="M55.2084 0.3125C55.7219 0.312523 56.2181 0.506693 56.6051 0.859103C56.9921 1.21151 57.2437 1.69832 57.3136 2.2295L57.3334 2.53125V42.4688C57.3332 43.0309 57.1287 43.572 56.7612 43.9828C56.3936 44.3936 55.8904 44.6433 55.3533 44.6817C54.8161 44.72 54.2851 44.544 53.8674 44.1892C53.4497 43.8345 53.1766 43.3274 53.1032 42.7705L53.0834 42.4688V2.53125C53.0834 1.9428 53.3073 1.37845 53.7058 0.962357C54.1043 0.54626 54.6448 0.3125 55.2084 0.3125ZM29.5951 5.89488L29.8302 5.61679C30.3181 5.10744 30.9672 4.80145 31.6558 4.75624C32.3444 4.71104 33.0251 4.92972 33.5702 5.37125L33.8366 5.61679L47.9947 20.4025C48.4826 20.9119 48.7756 21.5897 48.8189 22.3087C48.8622 23.0276 48.6528 23.7383 48.2299 24.3075L47.9947 24.5827L33.8394 39.3862C33.3321 39.9287 32.6446 40.2471 31.9189 40.2756C31.1932 40.3042 30.4847 40.0407 29.9397 39.5396C29.3947 39.0385 29.0548 38.338 28.9901 37.5828C28.9255 36.8276 29.141 36.0753 29.5922 35.4812L29.8274 35.2031L39.1462 25.4583H3.50008C2.8061 25.4582 2.13629 25.1922 1.61769 24.7107C1.0991 24.2292 0.767777 23.5657 0.686581 22.8461L0.666748 22.5C0.66684 21.7754 0.921624 21.076 1.38277 20.5346C1.84393 19.9931 2.47937 19.6472 3.16858 19.5624L3.50008 19.5417H39.1547L29.8302 9.79987C29.3424 9.29047 29.0494 8.61272 29.0061 7.89376C28.9628 7.17481 29.1722 6.46407 29.5951 5.89488Z" fill="#BDD7F5"/>
</svg>
