<svg width="17" height="20" viewBox="0 0 17 20" fill="none" xmlns="http://www.w3.org/2000/svg">
<path d="M1.625 20C1.35978 20 1.10543 19.8946 0.917893 19.7071C0.730357 19.5196 0.625 19.2652 0.625 19V1C0.625 0.734784 0.730357 0.48043 0.917893 0.292893C1.10543 0.105357 1.35978 0 1.625 0H15.625C15.8902 0 16.1446 0.105357 16.3321 0.292893C16.5196 0.48043 16.625 0.734784 16.625 1V19C16.625 19.2652 16.5196 19.5196 16.3321 19.7071C16.1446 19.8946 15.8902 20 15.625 20H1.625ZM11.625 14L16.625 10L11.625 6V9H5.625V11H11.625V14Z" fill="white"/>
</svg>
